<?xml version="1.0" encoding="UTF-8"?>
<!-- Created with Inkscape (http://www.inkscape.org/) -->
<svg width="210mm" height="297mm" version="1.1" viewBox="0 0 210 297" xmlns="http://www.w3.org/2000/svg" xmlns:cc="http://creativecommons.org/ns#" xmlns:dc="http://purl.org/dc/elements/1.1/" xmlns:rdf="http://www.w3.org/1999/02/22-rdf-syntax-ns#">
 <defs>
  <clipPath id="_clipPath_ZPEP5DahFdsoezq5HiNfL1O6VF9AfWKY">
   <rect x="721.5" y="58.104" width="923.39" height="1130.6"/>
  </clipPath>
 </defs>
 <metadata>
  <rdf:RDF>
   <cc:Work rdf:about="">
    <dc:format>image/svg+xml</dc:format>
    <dc:type rdf:resource="http://purl.org/dc/dcmitype/StillImage"/>
    <dc:title/>
   </cc:Work>
  </rdf:RDF>
 </metadata>
 <g transform="matrix(.22433 0 0 .22909 -165.65 15.272)" style="isolation:isolate">
  <g clip-path="url(#_clipPath_ZPEP5DahFdsoezq5HiNfL1O6VF9AfWKY)">
   <g stroke="#000" stroke-linecap="square" stroke-miterlimit="3">
    <path d="m1204 76c-3.823 4.491-7.359 8.786-14 11-3.911 0-16-2.378-16 4 0 5.897-5.121 16-10 16-6.459 0-6 13.209-6 16 0 1.124-12.161 5.161-16 9-3.427 3.428 2 17.193 2 20 0 10.157-5 15.365-5 24 0 8.153 4 14.963 4 21 0 9.628 4 19.873 4 30 0 15.528-1 28.712-1 42 0 14.694 3.331 19.331 14 30 10.124 10.124 18.576 18.288 28 23 8.33 4.165 20.552 6.552 25 11 7.989 7.989 17.702 6.649 27 2 12.281-6.14 32.473-7.473 41-16 10.605-10.605 22.211-7.421 29-21 6.337-12.673 7-24.21 7-36 0-11.554-5-20.462-5-30 0-13.608 1-26.901 1-39 0-14.157 1-25.84 1-38 0-2 2-25 2-25-13.255 0-12.613-5.613-19-12-5.645-5.645-5.595-13.595-10-18-6.161-6.161-12.954-11-18-11-5.466 0-6.163-2.081-10-4l-5-7c-8.167 0 4.094-16-8-16-9.074 0-19.711-4.644-27-1-4.735 2.367-9.282 0.641-12 2-3.814 1.907-3.543 3.372-2 8 0.085 0.255 0 3.73 0 1z" fill="#979797" vector-effect="non-scaling-stroke"/>
    <path d="m1153 203 56 22 4 78q-24.625 6.25-4 23l12 11 19-9q25.375-17 0-27v-79l63-25" fill="none" vector-effect="non-scaling-stroke"/>
    <path d="m1125.6 278.38c8.242-5.335 4.491-4.318 19.926-7.442" fill="#e6e6e6" vector-effect="non-scaling-stroke"/>
    <path d="m1317 269c-0.611-0.177 18.384 5.333 18.959 6 0.574 0.667-6.079-1.527-5.171-1 3.571 2.072 3.473 1.008-13.788-5z" fill="#8a2828" vector-effect="non-scaling-stroke"/>
   </g>
   <g fill="none" stroke="#000" stroke-linecap="square" stroke-miterlimit="3">
    <path d="m1086 784 5 2c17.172 12.266 42.486 8.097 62 12 18.133 6.044 37.781 1.89 52 9 12.578 6.289 28.11 11 40 11 17.899 0 34.659-4.915 51-9 26.861-6.715 50.107-10.277 73-16 12.022-3.005 27.065-6.065 32-11" vector-effect="non-scaling-stroke"/>
    <path d="m1081.3 656q128.83-92.475 107.98-160.29" vector-effect="non-scaling-stroke"/>
    <path d="m1188 496.45q40.218-36.526 41.249-35.419l42.281 35.419q-2.062 98.51 121.69 171.56" vector-effect="non-scaling-stroke"/>
   </g>
   <g stroke="#000" stroke-linecap="square" stroke-miterlimit="3">
    <path d="m1150 176q0.125-7.25 71 7l82-11q17.125 1.875 0 7t-76 24q-77.125-19.75-77-27z" fill="#3e3d3d" vector-effect="non-scaling-stroke"/>
    <path d="m1209 100v61l-55-3v-20q5.125-19.375 55-38z" fill="#d7d7d7" vector-effect="non-scaling-stroke"/>
    <path d="m1240 100v61l59-6v-23q-51.25-39.25-59-32z" fill="#d0d0d0" vector-effect="non-scaling-stroke"/>
   </g>
   <line x1="1150" x2="1213" y1="203" y2="232"/>
   <g fill="#979797" stroke="#000" stroke-linecap="square" stroke-miterlimit="3">
    <path d="m1112 312q2.667-40.667 10.667-38.667 50.666 52 40 58.667l8 72.667-78-82.667z" vector-effect="non-scaling-stroke"/>
    <path d="m1356 250.67q-63.333 64-65.333 79.333t-12.667 74.667l78.667-100q5.333-55.334-0.667-54z" vector-effect="non-scaling-stroke"/>
    <path d="m1166 362.1 55.691-18.095 64.309 12.064-9.282 55.793q-31.16 32.421-43.757 25.635-12.596-6.786-60.331-33.928z" vector-effect="non-scaling-stroke"/>
   </g>
   <clipPath id="_clipPath_kJttDN7U0yHuX8f1VnzN7FMIGVsZTTs3">
    <path d="m1166 362.1 55.691-18.095 64.309 12.064-9.282 55.793q-31.16 32.421-43.757 25.635-12.596-6.786-60.331-33.928z" fill="#979797" stroke="#000" stroke-linecap="square" stroke-miterlimit="3" vector-effect="non-scaling-stroke"/>
   </clipPath>
   <g clip-path="url(#_clipPath_kJttDN7U0yHuX8f1VnzN7FMIGVsZTTs3)">
    <path d="m1386.4 479.21c-1.619-12.146 5.691-23.157 16.314-24.573 10.623-1.417 20.563 7.294 22.182 19.44 1.62 12.145-5.69 23.156-16.313 24.573-10.624 1.416-20.563-7.295-22.183-19.44z" fill="#ebebeb"/>
   </g>
   <g stroke="#000" stroke-linecap="square" stroke-miterlimit="3">
    <path d="m1166 362.1 55.691-18.095 64.309 12.064-9.282 55.793q-31.16 32.421-43.757 25.635-12.596-6.786-60.331-33.928z" fill="transparent" vector-effect="non-scaling-stroke"/>
    <path d="m1357.3 292.67q16.338 16.797 17.019 14.606l17.019-5.112 4.084 9.494 14.976-5.113 10.212 11.685 14.976-6.572q90.539 69.378 104.15 159.94" fill="#fff" vector-effect="non-scaling-stroke"/>
    <path d="m1374.7 307.33-104 122.67 7.333 9.333 121.33-129.33" fill="#979797" vector-effect="non-scaling-stroke"/>
    <path d="m1280 436.67 3.333 22 140.67-140" fill="none" vector-effect="non-scaling-stroke"/>
    <path d="m1477.3 459.33q-134.67 75.334-148.67 57.334l-48.667-56 25.333-24.667" fill="#fff" vector-effect="non-scaling-stroke"/>
    <path d="m1094.7 320.67-22 1.333 94 111.33 10.666-13.333-7.333-20" fill="#979797" vector-effect="non-scaling-stroke"/>
    <path d="m1162.1 447.75-119.46-120.97 20.141-9.904 20.141 9.904" fill="#575757" vector-effect="non-scaling-stroke"/>
    <line x1="1155.4" x2="1167.3" y1="446.62" y2="434" vector-effect="non-scaling-stroke"/>
    <path d="m1046 326-8-4.667q-127.33 104.99-127.33 128.67" fill="#979797" vector-effect="non-scaling-stroke"/>
    <path d="m1161.3 444q-62.666 97.333-80 70-17.333-27.333-168-68" fill="#717171" vector-effect="non-scaling-stroke"/>
    <path d="m912.12 448q-14.781 25.184 21.875 54.667" fill="none" vector-effect="non-scaling-stroke"/>
    <path d="m933.33 502.9q28.794-17.568 28.794-17.568l8.913 21.622 53.474 28.378q61.701-10.81 52.788-25.675" fill="none" vector-effect="non-scaling-stroke"/>
    <path d="m1539.3 459.33q-10.666 47.334-22 44.667c-11.333-2.667-60 61.333-78 56.667q-18-4.667-21.333 64l1.333-2.667" fill="#fff" vector-effect="non-scaling-stroke"/>
   </g>
   <g fill="none" stroke="#000" stroke-linecap="square" stroke-miterlimit="3">
    <path d="m1418 633.72q-32.203 7.835-29.627-1.808t-3.22 15.669l10.305 24.709-15.458 40.379" vector-effect="non-scaling-stroke"/>
    <path d="m937.11 502 11.963 20.926-14.074 38.364 75.296 16.043 23.222-14.648 9.149-28.599" vector-effect="non-scaling-stroke"/>
    <path d="m1008.3 577.31-21.743 38.69-66.59-7.881 19.026-25.077-6.795-25.076 5.436-4.299" vector-effect="non-scaling-stroke"/>
    <path d="m1082 520-9.893 97.667q2.973 34.777 9.244 37l-12.326-10-4.541-29.334q-5.189-6.666-7.784 3.334c-2.595 10-23.388 83.349-34.383 100.67-59.683 94-50.601 76-84.984 62.667" vector-effect="non-scaling-stroke"/>
    <path d="m1079 649.95q19.263 84.834 20.672 79.633" vector-effect="non-scaling-stroke"/>
   </g>
   <path d="m1407.7 497.33-9.079 23.19 40.208 41.227" fill="#fff" stroke="#000" stroke-linecap="square" stroke-miterlimit="3" vector-effect="non-scaling-stroke"/>
   <line x1="1382.2" x2="1387.9" y1="506.62" y2="634.5" stroke="#000" stroke-linecap="square" stroke-miterlimit="3" vector-effect="non-scaling-stroke"/>
   <path d="m1222.9 404.43c-0.41-3.073 1.832-5.911 5.002-6.334 3.171-0.423 6.078 1.729 6.488 4.802 0.409 3.073-1.832 5.911-5.003 6.333-3.171 0.423-6.078-1.728-6.487-4.801z" fill="#ebebeb"/>
   <g fill="none" stroke="#000" stroke-linecap="square" stroke-miterlimit="3">
    <path d="m939.75 782.25c-9.821-2.95-21.747-5.247-29.25-12.75h-3" vector-effect="non-scaling-stroke"/>
    <path d="m897.75 649.89c9.712-8.325 18.008-14.749 29.345-8.716 4.834 2.573 23.202 15.471 23.202 21.064 0 4.961 10.253 10.947 11.602 15.253 0.39 1.248 2.638 7.893 3.412 8.716 6.084 6.476 8.189 25.016 8.189 31.96 0 13.209-0.066 18.229-7.507 26.148-4.683 4.985-14.363 15.322-16.378 19.612-3.902 8.306-18.813 13.074-25.25 13.074h-1.365l0.682-0.726" vector-effect="non-scaling-stroke"/>
    <path d="m935.5 634.35c7.228-1.122 18.253-4.565 24.692-10.346 7.421 0 17.988 4.115 20.302 10.346 2.648 7.133 13.624 15.393 17.009 19.952 5.543 7.465 3.01 20.31 8.779 28.081 5.344 7.196 6.634 19.278 10.974 25.125 1.852 2.494 2.339 14.268 2.744 16.996" vector-effect="non-scaling-stroke"/>
   </g>
   <g stroke="#000" stroke-linecap="square" stroke-miterlimit="3">
    <line x1="1100.2" x2="1085.2" y1="729" y2="784.5" vector-effect="non-scaling-stroke"/>
    <path d="m1378.5 711 21.75 20.25-15.75 5.25-3.75 16.5 10.5 20.25 10.5 12" fill="none" vector-effect="non-scaling-stroke"/>
    <path d="m1519.5 506.25 21 48.75-10.5 15.75 11.25 13.5 19.5 14.25-17.25 15q-21.75-0.75-0.75 14.25t24.75 14.25l11.25 1.5-8.25 23.25q16.5 3.75 15 12t-11.25 21l8.25 45.75q18.75 1.5 15 7.5t4.5 41.25q12.75-3.75 8.25 1.5c-4.5 5.25 10.5 37.5 3 42q-7.5 4.5 15.75-3.75 20.25 45.75 12 49.5t-17.25 27l10.5 28.5 3.75 15.75-6 15.75q-9.75 12-5.25 21.75c4.5 9.75-79.5 60-76.5 30" fill="#fff" vector-effect="non-scaling-stroke"/>
    <path d="m1548.8 1020.8q-5.25-36 27.75-33 24.75-25.5 15-34.5c-9.75-9-14.25-29.25-20.25-25.5s-0.75 45.75-9.75 40.5" fill="#fff" vector-effect="non-scaling-stroke"/>
   </g>
   <g fill="none" stroke="#000" stroke-linecap="square" stroke-miterlimit="3">
    <path d="m1564.5 967.04q-21.294 20.436-27.902 0.73t2.203-78.093q-22.763 0.73-16.888-8.028c5.874-8.758-13.951-21.166-5.875-28.464 8.077-7.298-38.181-72.984-33.776-80.283 4.406-7.298-24.231-3.649-22.028-11.677q2.203-8.028-0.734-14.597" vector-effect="non-scaling-stroke"/>
    <path d="m882.67 561q19.333-30.28-3.334-81" vector-effect="non-scaling-stroke"/>
    <path d="m879.33 480.67q-34.666 12.837-30 62.759 4.667 11.411 12.667 11.411c8 0-19.333 9.272-13.333 14.977q6 5.705 10 32.093l30.666 1.426 2-32.806q7.334-16.403-8-13.55" vector-effect="non-scaling-stroke"/>
    <path d="m903.33 722.25 8.667 75.466 70 50.955 2 19.351-10 0.645-57.333-34.186-28 10.32-32.667-14.835-34 10.32-5.333-14.19 61.333-25.155-12-72.886" vector-effect="non-scaling-stroke"/>
    <path d="m878.5 839.36 34.758 327.3 28.742-1.358-26.737-336.81" vector-effect="non-scaling-stroke"/>
    <path d="m922.67 606.62q-88.436-11.407-96.727-3.168c-8.291 8.238-22.8 27.883-11.055 34.854 11.746 6.971-6.909 14.576-6.218 23.448s3.455 24.081 13.818 19.011c10.364-5.07-12.436 1.267-8.981 10.139 3.454 8.872 6.909 23.448 12.436 20.913s-20.036 5.07-10.364 13.308q9.673 8.238 26.255 8.872l26.254-8.238 42.145-5.07q2.073-15.209-9.672-18.378-11.746-3.168-75.309 8.239" vector-effect="non-scaling-stroke"/>
    <path d="m820 644.67q87.045 2.318 89.479 13.912 79.741 34.202-2.434 27.245-82.175-6.956-82.784-8.115" vector-effect="non-scaling-stroke"/>
    <path d="m936.75 688.5q-17.196 29.599-25.454 21.695" vector-effect="non-scaling-stroke"/>
   </g>
   <line x1="920.67" x2="935.33" y1="606" y2="633.33" stroke="#000" stroke-linecap="square" stroke-miterlimit="3" vector-effect="non-scaling-stroke"/>
   <g fill="none" stroke="#000" stroke-linecap="square" stroke-miterlimit="3">
    <path d="m830 733.33 27.857 36 12.143-11.02" vector-effect="non-scaling-stroke"/>
    <path d="m1086 777.33q-10.667 46.298-6.667 51.744v10.894l-26 6.808-62.666 260.76q147.33-19.745 152.67-40.851c5.334-21.106 30.667-57.191 16-60.595q-14.666-3.404-8-16.34l12-16.341q-16-19.744-12-26.553c4-6.808 20-57.871 19.334-63.318q-0.667-5.447 112-1.362l9.333 17.702q-13.333-8.851-15.333 0c-2 8.851-4.667 34.723 5.333 37.447 10 2.723-5.333-7.49-7.333 35.404-2 42.893-5.334 68.084 5.333 74.212q10.667 6.127 152 64.68 4.667 21.787 12 17.021c7.333-4.766 6-27.915 0-29.276-6-1.362 7.333-62.638 0-65.361-7.333-2.724 3.333-51.064-4-57.872-7.333-6.809 5.333-59.914-3.333-59.914-8.667 0 9.333-45.617 0-46.979-9.334-1.361 0-42.212-8-40.85-8 1.361-33.334-30.638-32-42.894" vector-effect="non-scaling-stroke"/>
    <path d="m1077.3 828.67q150 37.333 156.67 34.666 188-26 187.33-38.666" vector-effect="non-scaling-stroke"/>
    <path d="m1045.3 878.67q108 37.333 121.33 22.666" vector-effect="non-scaling-stroke"/>
    <path d="m1291.3 900q137.59 32 146.67 20" vector-effect="non-scaling-stroke"/>
    <path d="m1441.3 966q-167.33-9.333-161.33-20" vector-effect="non-scaling-stroke"/>
    <path d="m1276.7 976q158.67 55.333 164.67 43.333" vector-effect="non-scaling-stroke"/>
    <path d="m1036.7 922q110 34.667 116.67 27.333" vector-effect="non-scaling-stroke"/>
    <path d="m1020 978.67q114.67 39.333 123.33 32.666 8.667-6.666 10-10.666" vector-effect="non-scaling-stroke"/>
   </g>
   <g fill="#ebebeb">
    <path d="m1108.3 745.1c-0.41-3.073 1.832-5.911 5.003-6.333 3.17-0.423 6.077 1.728 6.487 4.801s-1.832 5.911-5.003 6.334c-3.17 0.423-6.077-1.729-6.487-4.802z"/>
    <path d="m1090.9 809.1c-0.41-3.073 1.832-5.911 5.002-6.333 3.171-0.423 6.078 1.728 6.488 4.801 0.409 3.073-1.832 5.911-5.003 6.334s-6.078-1.729-6.487-4.802z"/>
    <path d="m1278.1 1004.9c-0.409-3.073 1.832-5.911 5.003-6.334s6.078 1.729 6.487 4.802c0.41 3.073-1.832 5.911-5.002 6.333-3.171 0.423-6.078-1.728-6.488-4.801z"/>
    <path d="m1291.6 766.1c-0.409-3.073 1.832-5.911 5.003-6.333 3.171-0.423 6.078 1.728 6.487 4.801 0.41 3.073-1.832 5.911-5.002 6.334-3.171 0.423-6.078-1.729-6.488-4.802z"/>
    <path d="m1315.3 762.6c-0.41-3.073 1.832-5.911 5.003-6.333 3.17-0.423 6.077 1.728 6.487 4.801s-1.832 5.911-5.003 6.334c-3.17 0.423-6.077-1.729-6.487-4.802z"/>
    <path d="m1336.3 759.93c-0.41-3.073 1.832-5.911 5.003-6.334 3.17-0.423 6.077 1.729 6.487 4.802s-1.832 5.911-5.003 6.333c-3.17 0.423-6.077-1.728-6.487-4.801z"/>
    <path d="m1359.9 756.6c-0.41-3.073 1.832-5.911 5.002-6.333 3.171-0.423 6.078 1.728 6.488 4.801 0.409 3.073-1.832 5.911-5.003 6.334s-6.078-1.729-6.487-4.802z"/>
    <path d="m1128.3 1029.8c-0.41-3.073 1.963-5.928 5.296-6.373 3.333-0.444 6.371 1.69 6.781 4.763s-1.964 5.928-5.296 6.373c-3.333 0.444-6.371-1.69-6.781-4.763z"/>
    <path d="m1120.8 1066.8c-0.41-3.073 1.504-5.867 4.27-6.236s5.345 1.827 5.754 4.899c0.41 3.073-1.503 5.868-4.269 6.236-2.767 0.369-5.345-1.826-5.755-4.899z"/>
    <path d="m1089.9 1078.6c-0.41-3.073 1.396-5.852 4.029-6.204 2.634-0.351 5.105 1.859 5.515 4.932s-1.396 5.853-4.03 6.204-5.105-1.859-5.514-4.932z"/>
    <path d="m1056.8 1088.1c-0.41-3.073 1.269-5.835 3.746-6.166 2.477-0.33 4.821 1.897 5.23 4.969 0.41 3.073-1.268 5.836-3.745 6.167-2.478 0.33-4.821-1.897-5.231-4.97z"/>
    <path d="m1020.1 1095.8c-0.409-3.073 1.161-5.821 3.506-6.134s4.581 1.928 4.99 5.001c0.41 3.073-1.161 5.822-3.505 6.134-2.345 0.313-4.581-1.928-4.991-5.001z"/>
    <path d="m994.95 1097.1c-0.483-3.627 1.194-6.848 3.743-7.188 2.55-0.34 5.012 2.329 5.496 5.956 0.483 3.627-1.194 6.848-3.743 7.188-2.55 0.34-5.012-2.329-5.496-5.956z"/>
    <path d="m1283.9 1038.6c-0.41-3.073 1.288-5.838 3.789-6.172 2.501-0.333 4.865 1.891 5.274 4.964 0.41 3.073-1.288 5.838-3.789 6.172-2.501 0.333-4.865-1.891-5.274-4.964z"/>
    <path d="m1324.4 1055.5c0.379 2.843 2.845 4.865 5.503 4.51 2.658-0.354 4.508-2.951 4.129-5.795-0.38-2.844-2.845-4.865-5.503-4.51-2.658 0.354-4.508 2.951-4.129 5.795z"/>
    <path d="m1363.3 1074.1c-0.41-3.073 1.161-5.821 3.506-6.134 2.344-0.312 4.58 1.929 4.99 5.002 0.41 3.072-1.161 5.821-3.506 6.134-2.344 0.312-4.58-1.929-4.99-5.002z"/>
    <path d="m1403.8 1094.6c-0.41-3.073 0.936-5.791 3.003-6.067 2.068-0.275 4.079 1.996 4.489 5.068 0.409 3.073-0.936 5.792-3.004 6.068-2.067 0.275-4.078-1.996-4.488-5.069z"/>
    <path d="m1438.3 1114.9c-0.41-3.073 0.662-5.755 2.392-5.986s3.467 2.077 3.877 5.15-0.662 5.755-2.392 5.985c-1.73 0.231-3.467-2.076-3.877-5.149z"/>
   </g>
   <g fill="none" stroke="#000" stroke-linecap="square" stroke-miterlimit="3">
    <path d="m1454.8 749.62q-19.06-10.856-13.413-27.139 70.591-78.314 73.414-70.561c2.824 7.754 47.296-18.609 45.884-10.08" vector-effect="non-scaling-stroke"/>
    <path d="m1455.8 749.25q75.75-55.5 84-57.75l38.25 2.25" vector-effect="non-scaling-stroke"/>
    <path d="m1531.5 695.25 40.944 112.88 9.306-6.359z" vector-effect="non-scaling-stroke"/>
    <path d="m1515.8 839.25q81-37.525 78.75-55.225-2.25-17.701-9-37.525" vector-effect="non-scaling-stroke"/>
    <path d="m1533.4 889.12q-7.462-23.317 0-27.337c7.461-4.02 68.644-35.377 68.644-45.025q0-9.649 0-22.513" vector-effect="non-scaling-stroke"/>
    <path d="m1533 884.74q27.216-26.165 40.824-22.201l3.78 22.994q6.804-40.437 13.608-37.266c6.804 3.172 35.532 44.402 28.728 54.709q-6.804 10.307 7.56 19.029" vector-effect="non-scaling-stroke"/>
    <path d="m1026.8 1106.2 1.5 31.5-6 12.75 3.75 19.5 56.25-26.25 108.75 43.5 9.75-18.75q-111.75-50.25-105.75-69.75c6-19.5-57.75 47.25-66 42.75" vector-effect="non-scaling-stroke"/>
    <path d="m1200.8 1173q8.25-32.981 1.5-29.763 25.5-51.482 13.5-56.308c-12-4.827 27.75-10.457 27.75-69.179" vector-effect="non-scaling-stroke"/>
    <path d="m1242.8 1019.2q21-0.75 48 139.5l26.25 12.75q66-50.25 61.5-58.5c-4.5-8.25 57.75 64.5 66.75 56.25q9-8.25 24-4.5l-9-24.75-14.25-15.75" vector-effect="non-scaling-stroke"/>
    <path d="m1417.5 622.12q6.414 108 24.375 108" vector-effect="non-scaling-stroke"/>
   </g>
   <g fill="#ebebeb">
    <ellipse cx="1249.5" cy="236.5" rx="3.75" ry="4.5" vector-effect="non-scaling-stroke"/>
    <path d="m1262.2 253.13c-0.328-2.462 1.071-4.683 3.122-4.956 2.052-0.274 3.984 1.503 4.312 3.965s-1.071 4.682-3.122 4.956c-2.052 0.273-3.984-1.503-4.312-3.965z"/>
    <path d="m1258.9 235.51c-0.328-2.462 1.071-4.682 3.122-4.956 2.052-0.273 3.984 1.503 4.312 3.965s-1.071 4.683-3.122 4.956c-2.052 0.274-3.984-1.503-4.312-3.965z"/>
    <path d="m1270.3 233.64c-0.328-2.462 1.071-4.683 3.122-4.956 2.052-0.274 3.984 1.503 4.312 3.965s-1.071 4.682-3.122 4.956c-2.052 0.273-3.984-1.503-4.312-3.965z"/>
    <path d="m1250.2 252.37c-0.328-2.462 1.071-4.682 3.122-4.956 2.052-0.273 3.984 1.503 4.312 3.965 0.329 2.462-1.071 4.683-3.122 4.956-2.052 0.274-3.984-1.503-4.312-3.965z"/>
    <path d="m1250.2 271.86c-0.329-2.462 1.07-4.682 3.122-4.956 2.052-0.273 3.984 1.503 4.312 3.965s-1.071 4.683-3.123 4.956c-2.051 0.274-3.983-1.503-4.311-3.965z"/>
    <path d="m1186.3 393.77c-0.41-3.073 1.832-5.911 5.003-6.334 3.17-0.422 6.077 1.729 6.487 4.802s-1.832 5.911-5.003 6.334c-3.17 0.422-6.077-1.729-6.487-4.802z"/>
    <path d="m1319.6 495.1c-0.409-3.073 1.832-5.911 5.003-6.333 3.171-0.423 6.078 1.728 6.487 4.801 0.41 3.073-1.832 5.911-5.002 6.334-3.171 0.423-6.078-1.729-6.488-4.802z"/>
    <path d="m1302.9 465.78c-0.524-3.929-4.07-6.702-7.914-6.19-3.844 0.513-6.54 4.118-6.016 8.047 0.524 3.928 4.07 6.702 7.914 6.189 3.844-0.512 6.54-4.118 6.016-8.046z"/>
    <path d="m1220.9 842.43c-0.41-3.073 1.832-5.911 5.002-6.334 3.171-0.423 6.078 1.729 6.488 4.802 0.409 3.073-1.832 5.911-5.003 6.333-3.171 0.423-6.078-1.728-6.487-4.801z"/>
    <path d="m1385.6 815.93c-0.409-3.073 1.832-5.911 5.003-6.334s6.078 1.729 6.487 4.802c0.41 3.073-1.832 5.911-5.002 6.333-3.171 0.423-6.078-1.728-6.488-4.801z"/>
    <path d="m1294.9 877.77c-0.41-3.073 1.832-5.911 5.002-6.334 3.171-0.422 6.078 1.729 6.488 4.802 0.409 3.073-1.832 5.911-5.003 6.334-3.171 0.422-6.078-1.729-6.487-4.802z"/>
    <path d="m1295.6 931.77c-0.409-3.073 1.832-5.911 5.003-6.334 3.171-0.422 6.078 1.729 6.487 4.802 0.41 3.073-1.832 5.911-5.002 6.334-3.171 0.422-6.078-1.729-6.488-4.802z"/>
    <path d="m1296.9 968.43c-0.41-3.073 1.832-5.911 5.002-6.334 3.171-0.423 6.078 1.729 6.488 4.802 0.409 3.073-1.832 5.911-5.003 6.333-3.171 0.423-6.078-1.728-6.487-4.801z"/>
    <path d="m1180.3 757.1c-0.41-3.073 1.832-5.911 5.003-6.333 3.17-0.423 6.077 1.728 6.487 4.801s-1.832 5.911-5.003 6.334c-3.17 0.423-6.077-1.729-6.487-4.802z"/>
    <path d="m1351.6 503.77c-0.409-3.073 1.832-5.911 5.003-6.334 3.171-0.422 6.078 1.729 6.487 4.802 0.41 3.073-1.832 5.911-5.002 6.334-3.171 0.422-6.078-1.729-6.488-4.802z"/>
    <path d="m1262.4 391.11c-0.41-3.073 1.832-5.911 5.002-6.334 3.171-0.423 6.078 1.729 6.488 4.802s-1.832 5.911-5.003 6.334c-3.171 0.422-6.077-1.729-6.487-4.802z"/>
    <path d="m1390.3 490.43c-0.41-3.073 1.832-5.911 5.003-6.334 3.17-0.423 6.077 1.729 6.487 4.802s-1.832 5.911-5.003 6.333c-3.17 0.423-6.077-1.728-6.487-4.801z"/>
    <path d="m1421.6 467.77c-0.409-3.073 1.832-5.911 5.003-6.334 3.171-0.422 6.078 1.729 6.487 4.802 0.41 3.073-1.832 5.911-5.002 6.334-3.171 0.422-6.078-1.729-6.488-4.802z"/>
    <path d="m1453.6 449.1c-0.409-3.073 1.832-5.911 5.003-6.333 3.171-0.423 6.078 1.728 6.487 4.801 0.41 3.073-1.832 5.911-5.002 6.334-3.171 0.423-6.078-1.729-6.488-4.802z"/>
    <path d="m1483.6 441.77c-0.409-3.073 1.832-5.911 5.003-6.334 3.171-0.422 6.078 1.729 6.487 4.802 0.41 3.073-1.832 5.911-5.002 6.334-3.171 0.422-6.078-1.729-6.488-4.802z"/>
    <path d="m1508.9 437.77c-0.41-3.073 1.832-5.911 5.002-6.334 3.171-0.422 6.078 1.729 6.488 4.802 0.409 3.073-1.832 5.911-5.003 6.334-3.171 0.422-6.078-1.729-6.487-4.802z"/>
    <path d="m1484.3 441.1c-0.41-3.073 1.832-5.911 5.003-6.333 3.17-0.423 6.077 1.728 6.487 4.801s-1.832 5.911-5.003 6.334c-3.17 0.423-6.077-1.729-6.487-4.802z"/>
    <path d="m1091.3 488.1c-0.409-3.073 1.832-5.911 5.003-6.334s6.078 1.729 6.487 4.802c0.41 3.073-1.832 5.911-5.002 6.333-3.171 0.423-6.078-1.728-6.488-4.801z"/>
    <path d="m1059.8 481.02c-0.41-3.073 1.832-5.911 5.003-6.334 3.17-0.422 6.077 1.729 6.487 4.802s-1.832 5.911-5.003 6.334c-3.17 0.422-6.077-1.729-6.487-4.802z"/>
    <path d="m1023.8 468.52c-0.41-3.073 1.832-5.911 5.003-6.334 3.17-0.422 6.077 1.729 6.487 4.802s-1.832 5.911-5.003 6.334c-3.17 0.422-6.077-1.729-6.487-4.802z"/>
    <path d="m988.76 458.52c-0.41-3.073 1.832-5.911 5.003-6.334 3.17-0.422 6.077 1.729 6.487 4.802s-1.832 5.911-5.003 6.334c-3.17 0.422-6.077-1.729-6.487-4.802z"/>
    <path d="m957.76 453.02c-0.41-3.073 1.832-5.911 5.003-6.334 3.17-0.422 6.077 1.729 6.487 4.802s-1.832 5.911-5.003 6.334c-3.17 0.422-6.077-1.729-6.487-4.802z"/>
    <path d="m1147.3 753.27c-0.41-3.073 1.832-5.911 5.003-6.334 3.17-0.422 6.077 1.729 6.487 4.802s-1.832 5.911-5.003 6.334c-3.17 0.422-6.077-1.729-6.487-4.802z"/>
    <path d="m1208 764.64c-0.41-3.073 1.832-5.911 5.003-6.334 3.17-0.422 6.077 1.729 6.487 4.802s-1.832 5.911-5.003 6.334c-3.17 0.422-6.077-1.729-6.487-4.802z"/>
    <path d="m1234.9 767.6c-0.41-3.073 1.832-5.911 5.002-6.333 3.171-0.423 6.078 1.728 6.488 4.801 0.409 3.073-1.832 5.911-5.003 6.334s-6.078-1.729-6.487-4.802z"/>
    <path d="m1262.6 767.6c-0.409-3.073 1.832-5.911 5.003-6.333 3.171-0.423 6.078 1.728 6.487 4.801 0.41 3.073-1.832 5.911-5.002 6.334-3.171 0.423-6.078-1.729-6.488-4.802z"/>
    <path d="m1195.3 239.98c-0.329-2.462 1.07-4.683 3.122-4.956 2.051-0.274 3.984 1.503 4.312 3.965s-1.071 4.682-3.123 4.956c-2.051 0.273-3.983-1.503-4.311-3.965z"/>
    <path d="m1192.3 272.9c-0.328-2.462 1.071-4.683 3.122-4.956 2.052-0.274 3.984 1.503 4.312 3.965 0.328 2.461-1.071 4.682-3.122 4.956-2.052 0.273-3.984-1.503-4.312-3.965z"/>
    <path d="m1184.7 236.98c-0.328-2.462 1.071-4.683 3.122-4.956 2.052-0.274 3.984 1.503 4.312 3.965 0.329 2.462-1.071 4.682-3.122 4.956-2.052 0.273-3.984-1.503-4.312-3.965z"/>
    <path d="m1195.3 256.12c-0.329-2.462 1.07-4.682 3.122-4.956 2.051-0.273 3.984 1.503 4.312 3.965s-1.071 4.683-3.123 4.956c-2.051 0.274-3.983-1.503-4.311-3.965z"/>
    <path d="m1182.5 256.12c-0.329-2.462 1.071-4.682 3.122-4.956 2.052-0.273 3.984 1.503 4.312 3.965s-1.071 4.683-3.122 4.956c-2.052 0.274-3.984-1.503-4.312-3.965z"/>
    <path d="m1175 235.5c-0.328-2.462 1.071-4.683 3.122-4.957 2.052-0.273 3.984 1.504 4.312 3.965 0.328 2.462-1.071 4.683-3.122 4.957-2.052 0.273-3.984-1.504-4.312-3.965z"/>
    <path d="m1141.9 894.27c-0.41-3.073 1.832-5.911 5.002-6.334 3.171-0.422 6.078 1.729 6.488 4.802 0.409 3.073-1.832 5.911-5.003 6.334-3.171 0.422-6.078-1.729-6.487-4.802z"/>
    <path d="m1134.6 936.93c-0.409-3.073 1.832-5.911 5.003-6.334s6.078 1.729 6.487 4.802c0.41 3.073-1.832 5.911-5.002 6.333-3.171 0.423-6.078-1.728-6.488-4.801z"/>
    <path d="m1140.9 915.6c-0.41-3.073 1.832-5.911 5.002-6.333 3.171-0.423 6.078 1.728 6.488 4.801 0.409 3.073-1.832 5.911-5.003 6.334s-6.078-1.729-6.487-4.802z"/>
    <path d="m1135.6 965.6c-0.409-3.073 1.832-5.911 5.003-6.333 3.171-0.423 6.078 1.728 6.487 4.801 0.41 3.073-1.832 5.911-5.002 6.334-3.171 0.423-6.078-1.729-6.488-4.802z"/>
    <path d="m1132.9 991.6c-0.41-3.073 1.832-5.911 5.002-6.333 3.171-0.423 6.078 1.728 6.488 4.801 0.409 3.073-1.832 5.911-5.003 6.334s-6.078-1.729-6.487-4.802z"/>
    <path d="m1053.5 873.39c-0.41-3.073 1.832-5.911 5.003-6.334 3.17-0.422 6.077 1.729 6.487 4.802s-1.832 5.911-5.003 6.334c-3.17 0.422-6.077-1.729-6.487-4.802z"/>
    <path d="m1419.3 910.02c-0.41-3.073 1.832-5.911 5.003-6.334 3.17-0.422 6.077 1.729 6.487 4.802s-1.832 5.911-5.003 6.334c-3.17 0.422-6.077-1.729-6.487-4.802z"/>
   </g>
  </g>
 </g>
 <g fill="#929292" fill-opacity=".76813" stroke="#979797">
  <g stroke-width=".3435">
   <path d="m152.81 138.92-4.2685-4.6136 1.0289-2.6533c1.0249-2.6432 1.0374-2.6575 3.2487-3.7566 1.2209-0.60683 4.7043-2.4589 7.7409-4.1158 4.8672-2.6556 6.1761-3.5331 5.2706-3.5331-0.14059 0-3.3405 1.687-7.1109 3.749-5.9638 3.2614-8.7711 4.6512-15.661 7.7531-2.1341 0.96076-7.1401 2.3832-8.3873 2.3832-0.59769 0-1.331-0.19526-1.6296-0.43391s-2.3198-2.5427-4.4916-5.1202c-3.0435-3.612-3.8105-4.7147-3.3461-4.8104 1.3763-0.28353 1.9594-1.8227 1.0445-2.757-0.92079-0.94034-2.6513-0.24798-2.6513 1.0608 0 0.54687-0.11707 0.50521-0.77483-0.27572l-0.77483-0.91992 8.168-8.2055c4.4924-4.513 11.871-11.957 16.396-16.543 4.5256-4.5855 8.6035-8.4796 9.0621-8.6536 0.73068-0.27728 1.163-0.0339 3.4986 1.9697 9.6429 8.2719 16.085 17.752 18.971 27.918 1.0645 3.7498 1.0653 4.2684 0.0122 7.673-1.0911 3.5274-2.0658 5.0114-3.4863 5.3081-1.4095 0.2944-2.3738 1.0656-7.7329 6.1846-4.8698 4.6517-7.292 6.5187-8.8378 6.8121-0.94935 0.18021-1.3144-0.12489-5.2882-4.42zm-12.874-7.7668c0.5962-0.73364 1e-3 -1.7066-1.0434-1.7066-1.0447 0-1.6396 0.97292-1.0434 1.7066 0.24574 0.30238 0.71526 0.54979 1.0434 0.54979s0.79765-0.24741 1.0434-0.54979zm-7.1976-2.0097c0.84766-1.043-0.81239-2.4718-1.8501-1.5923-0.51364 0.43533-0.65916 1.437-0.26695 1.8375 0.39467 0.40306 1.7144 0.25016 2.117-0.24528zm15.943-1.4629c0.13054-0.93308-0.72183-1.6528-1.6147-1.3634-0.68502 0.22203-0.97226 1.5168-0.45393 2.0462 0.51481 0.52574 1.9666 0.0466 2.0686-0.68272zm7.042-5.0197c0.45442-1.4622-1.4975-2.393-2.2014-1.0499-0.52267 0.99736-0.0804 1.7608 1.02 1.7608 0.66944 0 1.0274-0.21541 1.1814-0.71092zm6.9867-4.0044c0.3239-0.39856 0.3487-0.7089 0.0902-1.1282-0.50693-0.82212-1.5232-0.93263-2.0327-0.22104-0.94347 1.3177 0.91763 2.6104 1.9425 1.3492zm7.0499-2.2907c0.14222-1.2572-0.88821-1.855-1.9223-1.1153-1.2733 0.91079-0.63196 2.3388 0.9648 2.1483 0.64023-0.0764 0.87837-0.33331 0.95752-1.033zm5.0953-6e-3c0.56762-0.57966 0.50897-1.4956-0.13046-2.0375-1.0597-0.89812-2.3876 0.8426-1.4876 1.95 0.49812 0.61294 1.073 0.64402 1.618 0.0875z"/>
   <path d="m40.246 117.06c0.13098-0.12896 6.5096-6.1113 14.175-13.294l13.936-13.06 24.921 25.894-7.1917 0.24936c-9.7138 0.33682-46.138 0.50403-45.84 0.21044z"/>
   <path d="m141.92 164.63c-14.046-9.8351-20.977-20.267-21.937-33.019l-0.22197-2.949-4.5521-3.876c-2.5037-2.1318-4.7603-3.9575-5.0147-4.0572-0.49085-0.19236-1.19 0.36624-6.3152 5.0455-1.776 1.6215-3.2892 2.9898-3.3626 3.0405-0.0734 0.0507 0.0491 0.3169 0.27225 0.59146 0.22312 0.27455 0.49318 1.567 0.60012 2.8722 0.71999 8.7868-7.1522 19.652-23.067 31.837l-1.2535 0.95968-0.55798-1.1019c-0.30689-0.60606-0.72876-2.4837-0.9375-4.1724-0.3369-2.7258-0.25679-4.3099 0.71362-14.11 0.60122-6.0716 1.09-11.153 1.0862-11.292-0.0038-0.1391 0.371-0.0771 0.83288 0.13784 1.2068 0.56152 3.466-0.40507 5.6718-2.4266 2.0258-1.8567 6.0441-6.9281 8.7846-11.087 1.0282-1.5605 2.0598-2.8423 2.2923-2.8486 0.2409-6e-3 0.37388-0.33849 0.30913-0.77178-0.11584-0.77516 0.49662-1.8669 2.4873-4.4337l1.1176-1.441-0.55015-1.4303c-0.30258-0.78666-0.51103-1.4702-0.46322-1.5191 0.04781-0.0488 3.0671 1.6169 6.7096 3.7017 4.3156 2.47 6.978 3.791 7.6424 3.792 0.56086 8.6e-4 1.8169-0.46534 2.7912-1.036 2.4181-1.4162 6.2137-5.0888 6.227-6.0252 6e-3 -0.43368 3.6662-5.4781 8.821-12.157 4.9938-6.4707 8.9042-11.852 9.0269-12.423l0.21651-1.0067 1.3011 1.141c0.71562 0.62755 1.3141 1.227 1.3299 1.3322 0.0158 0.10516-5.0309 6.2754-11.215 13.712-6.184 7.4363-11.325 13.717-11.425 13.958-0.0997 0.24079 0.34701 1.0999 0.99262 1.9092 1.2668 1.588 1.9262 4.3188 1.2175 5.0425-0.27442 0.28025 0.28813 1.1612 2.0857 3.2662 1.3538 1.5853 3.8618 4.5495 5.5734 6.5871s3.5457 3.8975 4.0759 4.1333c1.2162 0.54074 4.1209 0.0425 8.0679-1.3839 1.8224-0.65859 2.7836-0.86024 2.8562-0.59918 0.34684 1.248 1.164 28.682 0.88908 29.85-0.25052 1.0644-0.18144 1.6572 0.33712 2.8926 0.35871 0.85462 0.65221 1.619 0.65221 1.6986 0 0.42415-0.89795-0.0859-4.1082-2.3338z"/>
  </g>
  <g stroke-width=".3435">
   <path d="m122.12 117.41c-0.24753-2.1344-2.003 0.0387 14.304-17.707 8.3402-9.0759 12.349-13.196 13.104-13.468 1.0321-0.3714 1.1435-0.32421 2.1871 0.92679 0.60481 0.72497 1.1019 1.418 1.1047 1.54 7e-3 0.31565-29.908 30.499-30.228 30.499-0.14556 0-0.35813-0.80603-0.47238-1.7912z"/>
   <path d="m95.844 94.549c-0.17208-1.7224-0.18949-3.3568-0.0387-3.632 0.60462-1.1033-1.3546-4.2972-5.6848-9.2675-1.2173-1.3972-2.2145-2.6422-2.2159-2.7668-0.0034-0.29153 1.9478-0.98857 2.7674-0.98857 0.44707 0 0.6291 0.25512 0.6291 0.88166 0 1.5924 1.2637 3.4589 4.4161 6.5225 3.1919 3.102 4.315 3.8505 7.7201 5.1452 1.0836 0.41199 2.4616 1.1295 3.0622 1.5945 1.6753 1.297 3.4584 1.3902 6.1485 0.32136 1.2524-0.49762 3.3758-1.2257 4.7186-1.6179 1.3428-0.39222 3.2548-1.2723 4.2489-1.9558 1.8262-1.2556 3.4846-2.2131 3.833-2.2131 0.10436 0-0.26182 0.8201-0.81372 1.8224-0.7046 1.2796-1.1307 2.7271-1.4307 4.8598-0.23495 1.6706-0.58775 3.0402-0.78398 3.0436-0.19624 3e-3 -3.4654-0.57526-7.2649-1.2859l-6.9081-1.2921-5.849 1.9802c-3.217 1.0891-5.9372 1.9802-6.0451 1.9802-0.10783 0-0.33685-1.4093-0.50893-3.1317z"/>
   <path d="m156.13 180.3c-1.1136-2.375-1.7378-5.145-2.464-10.935-1.0706-8.5355-0.93479-16.025 0.38597-21.292 0.70757-2.8217 1.4102-3.6532 3.3242-3.934 2.7374-0.40168 4.2206-1.5097 11.904-8.8929 2.9496-2.8343 5.1672-4.5327 5.4548-4.1776 0.05 0.0618 1.1565 2.6205 2.4588 5.686l2.3678 5.5737-1.1307 1.7096c-0.62191 0.94031-1.1308 1.8127-1.1308 1.9386 0 0.59296 2.8456 3.6434 4.552 4.8796 1.0485 0.75962 1.8988 1.4859 1.8895 1.614-0.0429 0.59008-3.4607 3.0286-4.4621 3.1835-2.2334 0.34553-1.3121 2.2769 2.1766 4.5631 0.89243 0.58484 1.6223 1.1642 1.6219 1.2875-3.3e-4 0.12329-1.7964 0.90202-3.9913 1.7305-2.8243 1.0661-4.1416 1.41-4.5074 1.1768-0.29417-0.18762-0.84471-0.20569-1.2781-0.042-1.7235 0.6511-15.898 15.655-16.147 17.091-0.10214 0.59031-0.31903 0.34472-1.0248-1.1604z"/>
   <path d="m146.34 160.82c-0.17666-0.87728-0.33668-3.5016-0.78095-12.807-0.28712-6.014-0.58905-12.122-0.67096-13.574l-0.14894-2.6395 2.3438-1.0635c1.2891-0.58494 2.3438-0.94981 2.3438-0.81083s-0.38438 1.2543-0.85418 2.4786l-0.85418 2.2259 8.3052 8.502-0.73285 0.79666c-1.6098 1.75-2.6361 5.9644-3.0186 12.396-0.17981 3.0234-0.33793 3.8477-0.77098 4.0196-0.65377 0.25944-5.1219 0.6721-5.1612 0.47668z"/>
   <path d="m63.277 178.74c-0.1282-0.57277-0.43274-1.4319-0.67676-1.9092-0.24402-0.47731-0.63724-1.4927-0.87383-2.2564-0.23659-0.76369-0.77746-2.0967-1.2019-2.9622-0.42448-0.86551-0.96414-2.5721-1.1992-3.7925-0.38212-1.9835-0.65348-2.4703-2.5589-4.5908-1.1723-1.3046-2.229-2.6857-2.3482-3.0692-0.26129-0.84074-2.5055-2.0741-3.7739-2.0741-0.50293 0-1.6945 0.38329-2.6479 0.85175-3.3456 1.6439-3.3509 1.6424-4.8934-1.3638l-1.3608-2.652 0.90073 0.18175c2.3329 0.47076 13.058 1.6173 13.254 1.417 0.12203-0.12462 1.2288-2.042 2.4594-4.2608l2.2376-4.0342 5.924-3.8142 1.0721-3.5183 1.0721-3.5183 2.9445-0.91541c1.9752-0.61408 3.3071-1.2613 4.0461-1.9663 0.60586-0.57798 1.2553-0.95384 1.4432-0.83524 0.22182 0.14 0.22466 0.29172 0.0081 0.43258-0.18344 0.11933-0.82902 5.1375-1.4346 11.152-1.0595 10.522-1.1414 13.431-0.47894 17.009 0.1895 1.0236 0.15092 1.1448-0.2449 0.76925-0.25841-0.24515-0.70287-1.9487-0.98768-3.7857-0.36531-2.3563-0.68881-3.4502-1.0983-3.714-0.93197-0.60036-1.4575 0.2929-2.6322 4.4741-1.6818 5.9859-4.7301 15.312-5.7706 17.655-0.93014 2.0944-0.95069 2.1134-1.1797 1.0901z"/>
   <path d="m58.374 134.37-5.8762-3.188-1.0102-2.4183c-0.5556-1.33-1.0682-2.4775-1.1392-2.55-0.07093-0.0724-1.5379 0.7309-3.26 1.7852l-3.131 1.9169-0.99037-0.74776c-2.2135-1.6713-4.6373-5.7054-4.6774-7.7851-0.02231-1.1577 1.0373-3.6266 1.4818-3.4525 0.21326 0.0836 1.914 0.57501 3.7794 1.0921 10.549 2.924 21.42 6.8509 27.031 9.7643 4.0572 2.1067 5.79 3.6282 5.2133 4.5777-0.60976 1.004-2.9145 2.1002-6.272 2.9832-5.426 1.427-4.6045 1.5727-11.149-1.9778z"/>
   <path d="m52.806 145.43c-4.4401-0.96422-8.0729-1.886-8.0729-2.0483s0.6433-2.0948 1.4296-4.2944l1.4296-3.9993-1.2965-2.4211c-0.71308-1.3316-1.1652-2.537-1.0047-2.6788 0.16052-0.14174 1.2919-0.89001 2.5142-1.6628l2.2224-1.4051 0.95897 2.3803 0.95897 2.3803 12.177 6.602 1.7157-0.37575c0.94362-0.20667 1.7748-0.31535 1.8471-0.24151 0.33913 0.34633-1.7682 6.2182-2.3878 6.6533-0.3739 0.26257-1.5211 1.0144-2.5494 1.6708l-1.8695 1.1934z"/>
   <path d="m48.066 155.17c-3.3078-0.41294-6.1123-0.85108-6.2324-0.97365-0.12002-0.12256 0.62608-1.3684 1.658-2.7685l1.8762-2.5457-1.2727-4.6872 0.7436 0.17418c0.40898 0.0958 3.9281 0.86212 7.8203 1.7029 3.8922 0.84082 7.1324 1.5857 7.2005 1.6552 0.0681 0.0695-0.8784 1.9593-2.1033 4.1995-1.7989 3.2897-2.3665 4.0654-2.9516 4.0336-0.39842-0.0217-3.4308-0.37731-6.7385-0.79025z"/>
   <path d="m108.98 201.53c-1.0282-0.35378-2.8101-1.053-3.9597-1.5538-1.4681-0.63957-3.1511-1.0132-5.655-1.2555-1.9607-0.18972-4.8441-0.57557-6.4077-0.85745-1.5636-0.28187-4.5531-0.65973-6.6435-0.83967-3.0405-0.26173-4.2133-0.52614-5.8635-1.3219-1.1345-0.5471-2.0628-1.1233-2.0628-1.2804 0-0.15708 0.69845-2.9406 1.5521-6.1857 1.0674-4.0574 1.446-6.0306 1.2125-6.3179-0.29449-0.36237-3.553-13.375-3.8459-15.358-0.08238-0.55777 0.5919-1.2647 2.9516-3.0946 15.742-12.207 23.292-23.52 21.664-32.46l-0.38069-2.0906 1.5948-1.5101c0.87718-0.83058 2.7717-2.5568 4.21-3.836l2.6151-2.3259 9.1442 7.7859 0.2411 2.9854c1.0466 12.959 8.2844 23.598 22.86 33.601 2.6641 1.8283 4.8438 3.4148 4.8438 3.5254 0 0.56478-3.2211 8.5935-3.5387 8.8204-0.23145 0.16533 0.51676 1.0898 1.9955 2.4657l2.3658 2.2012-1.3461 0.44005c-1.7801 0.58195-1.8732 0.69423-2.359 2.8474-0.4061 1.7997-0.38631 1.9113 0.7584 4.2778 0.64646 1.3364 1.5774 2.8669 2.0687 3.401 0.75015 0.81543 0.81254 1.0224 0.38939 1.2914-0.56663 0.36023-10.189 2.7597-14.61 3.6432-1.5891 0.31757-5.4131 1.2096-8.4978 1.9823-6.9261 1.735-12.195 2.086-15.296 1.019zm4.7824-9.9775c0.32294-0.39738 0.34841-0.71014 0.0919-1.1282-0.82156-1.3388-2.7926-0.52083-2.3302 0.96705 0.26748 0.86065 1.5923 0.95602 2.2383 0.16113zm6.2699-0.16113c0.46527-1.4971-1.5026-2.3833-2.2262-1.0026-0.27869 0.5318-0.27105 0.84493 0.0297 1.215 0.61083 0.75163 1.9368 0.62341 2.1966-0.21241zm6.5179-0.20409c0.27108-0.72142-0.29234-1.6513-1.0985-1.813-0.87061-0.17461-1.586 0.90381-1.1506 1.7346 0.42031 0.80205 1.957 0.85564 2.2491 0.0784zm-18.755-0.49017c0.46528-1.4971-1.5026-2.3833-2.2262-1.0026-0.2787 0.5318-0.27105 0.84493 0.0297 1.215 0.61083 0.75163 1.9368 0.62341 2.1966-0.21241zm23.97-0.35266c0.75797-1.4464-1.3068-2.3627-2.1666-0.96152-0.25653 0.41804-0.23106 0.73079 0.0919 1.1282 0.62292 0.76651 1.628 0.68577 2.0748-0.16665zm4.722-0.62412c0.43537-0.83077-0.27998-1.9092-1.1506-1.7346-0.80614 0.16168-1.3696 1.0916-1.0985 1.813 0.29204 0.7772 1.8288 0.72361 2.2491-0.0784zm-35.004-0.54646c0.30572-0.3762 0.31029-0.67947 0.0186-1.236-0.70117-1.338-2.8096-0.25663-2.2748 1.1666 0.26335 0.70086 1.7069 0.74524 2.2562 0.0694zm40.114-6e-3c0.70782-0.87097 0.28723-1.7523-0.83623-1.7523-1.0376 0-1.4574 0.69606-1.0592 1.7559 0.243 0.64671 1.3686 0.64457 1.8954-4e-3zm-47.588-0.69379c0.67314-0.82831 0.10347-1.9844-0.91612-1.8593-1.152 0.14142-1.7347 1.0737-1.1335 1.8135 0.55826 0.68695 1.5112 0.70822 2.0496 0.0458zm-8.4843-2.5898c0-0.87533-0.84683-1.5216-1.6519-1.2607-0.98308 0.31865-1.1431 1.1532-0.37213 1.9405 0.53925 0.5507 0.81893 0.61836 1.3519 0.32704 0.36962-0.20201 0.67204-0.65509 0.67204-1.0068z"/>
   <path d="m108.11 212.33c-3.873-0.66652-27.494-6.2213-30.829-7.2498-0.45945-0.1417-0.59485-0.56448-0.59485-1.8574 0-1.5573 0.88911-7.1552 1.2245-7.7093 0.08205-0.13557 1.1155 0.2153 2.2965 0.77972 1.7183 0.82114 2.9225 1.0984 6.0265 1.3873 2.1335 0.19859 5.1793 0.58847 6.7684 0.86639 1.5891 0.27793 4.4904 0.66857 6.4474 0.86811 2.5923 0.2643 4.1609 0.6316 5.7785 1.3531 5.8702 2.6182 9.8614 2.7389 18.516 0.56021 2.7932-0.70315 7.3055-1.7486 10.027-2.3232 5.0717-1.0706 12.816-2.9699 13.265-3.2531 0.13801-0.0871 0.42132 0.42228 0.62956 1.132 0.48382 1.6489 2.0491 4.1688 3.7825 6.0892l1.358 1.5045-1.1481 0.5591c-2.7159 1.3226-13.761 3.6258-27.724 5.7811-13.482 2.081-12.862 2.0218-15.824 1.5121zm2.1598-3.2903c1.0263-1.0481-0.0161-2.7105-1.2699-2.0252-0.77959 0.42608-0.91888 1.3867-0.29366 2.0252 0.51839 0.52939 1.0452 0.52939 1.5636 0zm37.353-6.3997c0.27108-0.72142-0.29234-1.6513-1.0985-1.813-0.87062-0.17461-1.586 0.90381-1.1506 1.7346 0.42031 0.80205 1.957 0.85564 2.2491 0.0784zm-66.372-1.3661c0.67084-0.68509 0.67084-1.001 0-1.6861-0.63193-0.64535-0.67736-0.65088-1.5277-0.18615-0.741 0.40499-0.86206 1.3757-0.24958 2.0012 0.55398 0.56574 1.1386 0.52333 1.7773-0.12893z"/>
   <path d="m150.11 226.26c-0.46738-0.0791-1.997-0.30723-3.3991-0.5069-3.1118-0.44312-11.507-2.103-17.588-3.4773-2.4757-0.55954-4.5508-1.0174-4.6113-1.0174-0.0605 0-0.53814-0.91488-1.0615-2.0331l-0.95151-2.0331-3.2749-0.2215c-4.1578-0.2812-20.022-0.29315-21.379-0.0161-0.93426 0.19082-1.0606 0.38916-1.4542 2.2832-0.60288 2.9012-1.1589 3.219-5.1859 2.964-3.4558-0.21879-9.4227-1.6912-17.111-4.2224l-4.8041-1.5817 1.6828-6.8535 5.7159-1.542v-1.2057c0-0.98644 0.10818-1.1725 0.59485-1.0232 0.32717 0.10042 3.5011 0.9 7.0532 1.7768 17.017 4.2006 23.997 5.7243 26.223 5.7243 1.8024 0 17.439-2.3336 25.627-3.8246 7.5673-1.3779 13.786-2.8856 15.708-3.8083 1.1899-0.57118 1.6957-0.64927 2.4097-0.37204 0.88262 0.3427 0.9039 0.42196 0.91182 3.3969 0.01 3.6265 0.38959 5.5358 1.2259 6.1603 0.57157 0.42682 0.58324 0.66013 0.16793 3.3584-0.76082 4.9432-0.84342 6.4978-0.3758 7.0732 0.23672 0.29129 0.31995 0.6424 0.18497 0.78025-0.27404 0.27986-4.9876 0.44525-6.3098 0.2214zm5.0321-2.614c0.0686-0.60408-0.0904-0.98621-0.47278-1.136-0.9359-0.36677-1.84 0.11008-1.84 0.97045 0 1.0366 0.30414 1.3028 1.3469 1.1786 0.64544-0.0769 0.88851-0.3318 0.96587-1.013zm-62.491-2.8915c0.70925-0.87274 0.28717-1.7523-0.84089-1.7523-0.81128 0-1.0381 0.16636-1.1298 0.82857-0.17683 1.2772 1.1703 1.9086 1.9707 0.92376zm34.29-3.6193c0.25005-0.16186 0.40301-0.66715 0.33992-1.1229-0.0917-0.66221-0.31852-0.82857-1.1298-0.82857-0.709 0-1.0508 0.1893-1.1335 0.62776-0.26405 1.4002 0.73883 2.0904 1.9234 1.3237zm-53.967-1.2863c0.5962-0.73363 0.0014-1.7066-1.0434-1.7066-1.0447 0-1.6396 0.97292-1.0434 1.7066 0.24574 0.30239 0.71526 0.5498 1.0434 0.5498s0.79765-0.24741 1.0434-0.5498z"/>
   <path d="m89.432 232.48c-7.9811-1.8487-21.418-5.7198-22.05-6.3526-0.27156-0.27182 1.3617-8.1853 1.8068-8.7543 0.10527-0.13459 2.5615 0.53281 5.4584 1.4831 8.7524 2.8712 13.249 3.8971 17.248 3.9353 1.9156 0.0183 3.4851 0.11137 3.4877 0.20683 0.0027 0.0955-0.70693 2.3214-1.5769 4.9466l-1.5817 4.7731-1.0562-0.0403c-0.58093-0.0221-1.3622-0.11113-1.7361-0.19774zm1.6996-2.7126c0-0.92462-0.11382-1.0414-1.0151-1.0414-0.70683 0-1.0508 0.18954-1.1328 0.62415-0.16369 0.86802 0.58946 1.686 1.4383 1.5622 0.53927-0.0787 0.70957-0.35347 0.70957-1.1449zm1.5412-4.3613c0.27869-0.53181 0.27105-0.84493-0.02966-1.215-0.61083-0.75163-1.9368-0.62341-2.1966 0.21241-0.46528 1.4971 1.5026 2.3833 2.2262 1.0026z"/>
   <path d="m86.202 246.27c-3.4816-0.75429-5.8341-1.4494-15.041-4.4442-5.3614-1.7439-7.0532-2.4295-7.0532-2.8582 0-0.31017 0.53551-2.8208 1.19-5.5791 0.65452-2.7584 1.2728-5.3808 1.3739-5.8278 0.1348-0.59577 0.33878-0.75092 0.76447-0.58144 3.8758 1.5431 19.584 5.8311 22.921 6.2569 1.5689 0.20018 1.9406 0.37695 2.0925 0.99507 0.1016 0.4134 0.66516 1.4924 1.2524 2.3977 1.1743 1.8105 1.1793 1.7724-0.55079 4.2235-0.9774 1.3848-1.194 1.9815-1.1166 3.0763 0.07924 1.1208-0.06897 1.5032-0.84764 2.1872-1.104 0.96978-1.2055 0.97292-4.9847 0.15412zm4.5888-4.0114c0-0.92462-0.11382-1.0414-1.0151-1.0414-0.70899 0-1.0508 0.1893-1.1335 0.62776-0.21233 1.126 0.21806 1.6818 1.2119 1.5651 0.79022-0.0928 0.9367-0.27288 0.9367-1.1514zm0.61423-5.4201c0.50937-0.83027 0.03638-1.6961-0.92658-1.6961-1.0371 0-1.6342 0.94001-1.1654 1.8345 0.39564 0.75496 1.5925 0.67573 2.092-0.13848z"/>
   <path d="m154.36 248.81c-4.1798-0.88085-7.8043-1.7918-11.047-2.7766-3.8359-1.1649-22.5-7.4072-22.713-7.5964-0.0596-0.053 0.0721-1.3575 0.29283-2.8989 0.3731-2.6058 0.44719-2.7774 1.056-2.4446 1.6708 0.91319 10.477 2.0618 22.384 2.9194 13.39 0.96447 12.014 0.7238 12.555 2.1954 0.58841 1.5994 0.86463 8.6071 0.38956 9.8832-0.35369 0.95001-1.0292 1.1164-2.917 0.71859zm-26.672-11.254c0.50363-0.96103-0.16663-1.7839-1.3393-1.6442-0.98319 0.1171-1.3403 1.0666-0.69828 1.8567 0.58964 0.72555 1.6013 0.62008 2.0376-0.21243z"/>
   <path d="m149.94 235.8c-14.049-0.99073-25.375-2.3021-27.194-3.1487-0.98674-0.45914-1.0583-0.85972-0.30527-1.7094 0.58577-0.66101 0.39103-1.3509-0.38131-1.3509-0.26282 0-0.66472-0.35147-0.89312-0.78105-0.44698-0.84069-0.54917-5.8216-0.146-7.1162 0.28059-0.90094 1.3844-1.039 2.4162-0.30228 0.36876 0.26332 3.5767 1.1155 7.1288 1.8938 13.332 2.9212 21.267 4.1319 24.52 3.7414l1.8228-0.21879-2e-3 1.8255c-1e-3 1.004-0.10027 3.1142-0.22034 4.6893l-0.21829 2.8638-1.2243-0.0494c-0.67336-0.0271-3.0598-0.17881-5.3032-0.33701zm-22.798-6.4075c0.29378-0.30002 0.53415-0.67939 0.53415-0.84304 0-0.31682-0.95423-1.3885-1.2363-1.3885-0.0924 0-0.46389 0.1617-0.82551 0.35934-0.81935 0.44782-0.85382 1.5722-0.0626 2.0428 0.80606 0.47945 0.97116 0.46175 1.5903-0.17055z"/>
   <path d="m156.75 272.56c-0.2642-0.64577-0.57823-1.5723-0.69783-2.059-0.17751-0.72225-0.74533-1.1009-3.0903-2.0608-1.58-0.64681-2.7163-1.2293-2.5249-1.2944 0.47599-0.16205 0.44108-2.0436-0.0436-2.3495-0.49469-0.31223-1.3227 0.80476-1.0784 1.4548 0.33827 0.90024 1.1925 1.2333-16.369-6.3829-5.979-2.593-11.206-5.0564-11.615-5.4742-0.44476-0.45419-0.84334-1.4368-0.99116-2.4435-0.24612-1.6761 0.0429-12.251 0.34324-12.558 0.0867-0.0885 3.0328 0.85456 6.5469 2.0958 12.747 4.5024 24.458 7.8337 28.077 7.9869 1.8245 0.0772 1.8935 0.11594 2.0905 1.1731 0.11204 0.60128 0.42357 1.5433 0.69229 2.0934 0.42712 0.87437 0.41766 1.8167-0.0752 7.4908l-0.56373 6.4906 0.746 0.81094c0.58201 0.63268 0.74599 1.232 0.74599 2.7267 0 1.0537-0.11472 2.0329-0.25493 2.1761-0.14022 0.1432-0.25494 0.44046-0.25494 0.66058 0 0.22014-0.27056 0.45346-0.60126 0.51849-0.41576 0.0818-0.74947-0.24398-1.0816-1.0559zm1.513-2.024c0-0.68536-0.17109-1.0209-0.52054-1.0209-0.71896 0-0.96786 0.84136-0.50832 1.7182 0.49954 0.95324 1.0289 0.59448 1.0289-0.69734zm-16.375-8.9644c0.13651-0.95003-0.5005-1.8015-1.1557-1.5448-0.9654 0.37834-0.28758 2.7647 0.69193 2.4361 0.19396-0.0651 0.40264-0.46613 0.46373-0.89127zm-8.5055-4.5956c0.0693-0.6105-0.0905-0.98622-0.48524-1.1409-0.82786-0.32444-1.6148 0.57462-1.3234 1.512 0.34268 1.1026 1.6723 0.82981 1.8087-0.3711zm-9.1733-3.8677c0.13573-1.2013-0.84026-1.7107-1.5034-0.78456-0.32371 0.45212-0.35079 0.80968-0.0979 1.2923 0.49744 0.94923 1.4715 0.64035 1.6012-0.50774zm-0.97108-7.0078c0.70782-0.87098 0.28723-1.7523-0.83623-1.7523-1.0376 0-1.4574 0.69607-1.0592 1.7559 0.243 0.64671 1.3686 0.64456 1.8954-4e-3z"/>
   <path d="m59.386 267.5c0.52672-0.86132-0.04933-2.4993-0.87894-2.4993-0.28444 0-0.51716-0.10538-0.51716-0.23419 0-0.23704 4.862-21.092 5.4587-23.414l0.32341-1.2588 7.2214 2.4066c8.7446 2.9142 15.785 4.8157 18.16 4.9047 1.5075 0.0565 1.9024-0.072 2.7421-0.89266 0.88694-0.86679 1.0847-0.92177 2.0629-0.57353 1.5494 0.5516 1.4304 1.7532-0.65018 6.5656-0.94924 2.1956-1.9936 4.7731-2.3209 5.7277-0.42143 1.2293-0.99745 2.0507-1.9745 2.8156-2.2023 1.7241-9.4515 3.8385-18.786 5.4796-5.6104 0.98632-5.5231 0.97706-5.2701 0.55909 0.41869-0.69184-0.13719-2.0852-0.83189-2.0852-0.80499 0-1.2388 1.2416-0.6759 1.9343 0.22904 0.28184 0.3564 0.57134 0.28302 0.64336-0.07338 0.072-1.1792 0.24411-2.4574 0.38243-2.2846 0.2472-2.3166 0.23939-1.8885-0.46074zm13.73-3.0248c0-0.7917-0.17024-1.0614-0.7205-1.1416-0.83511-0.12171-1.2445 0.8848-0.73683 1.8113 0.52142 0.95151 1.4573 0.52142 1.4573-0.66969zm7.6349-1.5322c0.68512-1.3074-0.52483-2.5503-1.5066-1.5477-0.65614 0.67007-0.65338 0.98931 0.01444 1.6713 0.70333 0.71828 1.0667 0.68816 1.4922-0.1236zm6.9814-3.3277c0-0.8728-0.13357-1.0366-0.84513-1.0366-0.96845 0-1.3227 0.95029-0.65883 1.7672 0.68278 0.84017 1.504 0.44127 1.504-0.73058zm2.2331-8.0084c0.5962-0.73362 0.0014-1.7065-1.0434-1.7065-0.90792 0-1.5594 0.87689-1.2545 1.6885 0.27236 0.72485 1.7143 0.73619 2.2978 0.0181z"/>
   <path d="m170.76 200.46c-1.8218-3.6045-3.4334-7.1488-3.5815-7.8764-0.26223-1.2889-0.32546-1.3365-2.4662-1.8575l-2.197-0.53463-0.1998-3.8499 3.479-2.5878c1.9134-1.4233 5.3976-3.9373 7.7426-5.5867l4.2636-2.9989 4.0034 11.33c2.2018 6.2315 4.2264 11.907 4.499 12.613l0.49563 1.2829-2.0307 1.2598c-2.508 1.5559-9.874 5.3759-10.348 5.3665-0.19129-4e-3 -1.8384-2.956-3.6602-6.5605z"/>
   <path d="m159.21 185.35c-1.0567-1.0481-1.2256-1.4351-1.2256-2.8094 0-1.5585 0.0925-1.6952 4.1738-6.173 2.2956-2.5185 5.6862-6.0723 7.5348-7.8972 3.322-3.2796 3.3807-3.3182 5.0606-3.334 1.1738-0.011 2.7648-0.45515 5.1432-1.4357 1.894-0.7809 3.806-1.3731 4.2489-1.3161 0.44293 0.0571 1.5079 0.21867 2.3666 0.35912l1.5613 0.25535-0.79649 2.2409c-1.0198 2.8693-1.0039 3.1216 0.21263 3.37 0.55502 0.11336 1.3171 0.52061 1.6935 0.90499 0.71535 0.73055 0.64172 1.3455-0.4131 3.4502l-0.41579 0.82961-8.9342-0.45789-4.1091 2.7726c-2.26 1.525-6.3464 4.4289-9.081 6.4531-2.7346 2.0243-5.157 3.753-5.3831 3.8416-0.22617 0.0886-0.96273-0.38585-1.6368-1.0544z"/>
   <path d="m186.12 191.49c-1.7423-3.7707-4.203-9.0809-5.4683-11.8-2.7963-6.0102-2.9164-5.8005 3.1168-5.4401 3.1765 0.18974 3.9897 0.33701 3.7166 0.67304-0.45527 0.56021 1.2806 10.942 1.9194 11.48 0.58173 0.48954 2.1641 6.5077 2.1652 8.235 8.4e-4 1.2432-1.3492 3.7085-2.0307 3.7085-0.13823 0-1.6768-3.0851-3.4191-6.8558z"/>
   <path d="m46.833 195.08c-1.743-0.84046-3.2453-1.6059-3.3385-1.701-0.09314-0.0951 0.30872-0.28017 0.89301-0.41123 0.58429-0.13105 1.6277-0.81939 2.3187-1.5296 1.6983-1.7456 5.2325-6.1434 5.7736-7.1844 0.48139-0.92615 0.6251-5.7241 0.23812-7.9496-0.35564-2.0452-2.6634-6.7888-3.8737-7.9622-0.57838-0.56075-1.0516-1.2902-1.0516-1.6211 0-0.78504-3.3106-3.7868-5.2896-4.7962-1.9479-0.9935-3.2111-0.79562-5.5904 0.87578l-1.7456 1.2262-2.3205-0.36768c-1.2763-0.20222-5.0314-0.54366-8.3447-0.75876l-6.0243-0.39108-0.98794-1.0866c-1.2829-1.4109-1.1188-2.8042 0.63697-5.4081 2.1039-3.1204 1.6763-3.0398 12.493-2.3526 7.972 0.50654 9.4724 0.68748 9.9934 1.2052 0.33719 0.33502 1.2685 1.8354 2.0696 3.3341 1.4108 2.6396 1.4891 2.7183 2.4973 2.5124 0.57248-0.11692 1.8917-0.63203 2.9317-1.1447 2.7062-1.334 4.886-0.85244 5.9875 1.3228 0.29649 0.58552 1.3554 1.9714 2.3532 3.0798 1.5378 1.7083 1.8714 2.3252 2.1901 4.0497 0.20678 1.119 0.75164 2.8155 1.2108 3.7701 1.2912 2.6844 2.6121 6.356 2.7992 7.781 0.15365 1.1699-0.13822 1.772-3.1381 6.4741-5.095 7.9859-7.3133 10.569-9.0702 10.563-0.24297-6.9e-4 -1.8679-0.68922-3.6109-1.5297z"/>
  </g>
 </g>
 <path d="m39.765 192.04c-0.53933-0.41737-1.0476-0.81123-1.1295-0.87525-0.21724-0.16982-1.3037-9.9473-1.1395-10.255 0.07637-0.14319 0.43574-0.26034 0.79862-0.26034 0.50647 0 0.65977-0.24198 0.65977-1.0414 0-0.89331 0.12721-1.0414 0.89463-1.0414 1.0196 0 2.5372-1.4806 4.0708-3.9714 0.74899-1.2165 1.2866-1.6808 2.2577-1.9502 2.6251-0.72805 1.1713-2.5247-4.1639-5.1461-1.776-0.87263-3.4441-1.7986-3.7068-2.0576-0.2627-0.25904-0.86712-0.6222-1.3431-0.80703l-0.8655-0.33605 1.0032-0.84392c0.55178-0.46416 1.5934-1.0326 2.3148-1.2632 1.1682-0.37344 1.4677-0.33464 2.7404 0.35484 1.8437 0.99886 4.9558 3.7785 4.9558 4.4264 0 0.27584 0.58128 1.1619 1.2917 1.9691 2.6545 3.0159 4.4662 9.083 3.9345 13.176-0.16693 1.2851-0.55513 2.1278-1.537 3.3364-0.72254 0.88939-2.1082 2.615-3.0793 3.8347-2.6737 3.3582-5.7834 4.4333-7.9571 2.7512z" fill="#1a1a1a" fill-opacity=".76813" stroke="#979797" stroke-width=".3435"/>
 <g fill="#4d4d4d" fill-opacity=".76813" stroke="#979797" stroke-width=".3435">
  <path d="m110.11 114.9c-2.4253-1.1724-12.439-6.8684-12.856-7.3131-0.18695-0.19908-0.36005-0.9087-0.38466-1.5769-0.02461-0.66822-0.12852-1.6836-0.23092-2.2564-0.33474-1.8725-0.90884-5.5477-0.91146-5.8349-0.0014-0.15446 0.14426-0.18816 0.32371-0.0749 0.17946 0.11327 3.0063-0.68956 6.2819-1.784l5.9556-1.99 7.3146 1.3395c4.2502 0.77833 7.3144 1.498 7.3141 1.7178-3.3e-4 0.20804-0.44681 3.0165-0.99228 6.2411l-0.99178 5.8628-1.982 2.0504c-2.2607 2.3388-4.6321 4.0074-6.0849 4.2815-0.66155 0.12484-1.5864-0.0976-2.7557-0.66289zm0.89665-6.2698c0.90297-1.1111-0.42327-2.8179-1.601-2.0605-0.75519 0.48569-0.93976 1.4102-0.41134 2.0605 0.52504 0.64606 1.4874 0.64606 2.0124 0zm-8.0109-2.7069c0.54677-0.89075-0.14862-1.8224-1.3602-1.8224-0.83121 0-0.99999 0.15473-1.0949 1.0037-0.17738 1.5869 1.6164 2.1851 2.4551 0.81871zm17.032-1.0903c0-1.807-2.1559-2.1652-2.4931-0.41426-0.22072 1.1461 0.2283 1.6407 1.3861 1.5268 0.96958-0.0954 1.1071-0.23358 1.1071-1.1125z"/>
  <path d="m76.76 132.36c-2.8723-3.1843-8.5245-5.9867-19.841-9.8373-5.4429-1.852-6.2478-2.2151-5.6936-2.5686 0.73147-0.46652 0.84449-1.4522 0.23758-2.072-0.31725-0.32398 1.6278-0.41667 8.7528-0.41707 5.0384-3.4e-4 14.816-0.10435 21.729-0.23127l12.568-0.23075-0.63068 1.0123c-5.6688 9.0991-12.172 16.113-14.94 16.113-0.32295 0-1.3048-0.79554-2.1818-1.7679zm4.9642-5.1071c0.13297-0.95791-0.47684-1.8033-1.3008-1.8033-0.89631 0-1.4671 0.90401-1.216 1.9258 0.18701 0.76092 0.3817 0.87744 1.3126 0.78555 0.84358-0.0833 1.1184-0.29052 1.2041-0.90804zm-7.7368-0.77415c0.83857-0.45832 0.85726-1.937 0.03021-2.389-0.4515-0.24677-0.8325-0.19604-1.3597 0.18103-0.86757 0.62058-0.93153 1.2729-0.19823 2.0218 0.63193 0.64535 0.67736 0.65089 1.5277 0.18615zm-7.514-3.2689c0.85828-1.0561-0.35357-2.5313-1.7165-2.0896-1.4524 0.47075-1.0101 2.5936 0.54037 2.5936 0.4216 0 0.95087-0.22682 1.1762-0.50404zm-8-2.2441c1.1627-1.312-0.88478-2.9523-2.1159-1.6951-0.55398 0.56574-0.51245 1.1627 0.12625 1.815 0.70729 0.72231 1.2735 0.68819 1.9896-0.1199z"/>
  <path d="m157.74 143.23c-0.63981-0.0983-6.9089-5.9787-6.3738-5.9787 0.13159 0-0.41464-0.68041-1.2138-1.512l-1.4531-1.512 0.84863-2.1328c0.46675-1.1731 0.76224-2.1328 0.65665-2.1328-0.54865 0 1.914-1.5234 5.8482-3.6178 8.4644-4.506 10.989-6.1018 9.6523-6.1018-0.62246 0-5.0634 2.4913-5.0634 2.8405 0 0.17854-0.15296 0.22807-0.33991 0.11008-0.18695-0.118-0.33992-0.0399-0.33992 0.17356s-0.15296 0.29157-0.33991 0.17357-0.33991-0.0399-0.33991 0.17357c0 0.21345-0.15296 0.29156-0.33992 0.17356-0.18695-0.118-0.33991-0.0231-0.33991 0.21093 0 0.23402-0.0976 0.32577-0.21696 0.20391-0.23299-0.23794-4.6359 2.1408-4.8258 2.6072-0.0627 0.15399-0.25391 0.19168-0.4249 0.0838-0.17098-0.10791-0.31088-0.0216-0.31088 0.19189 0 0.21346-0.15296 0.29157-0.33991 0.17357s-0.33991-0.0399-0.33991 0.17357c0 0.21345-0.14063 0.29934-0.31251 0.19086-0.17188-0.10849-0.53608 0.0311-0.80932 0.31011-0.27324 0.27905-0.5915 0.41066-0.70723 0.29247-0.11574-0.11819-0.21042-0.0376-0.21042 0.1792 0 0.21675-0.20972 0.3119-0.46605 0.21145-0.25632-0.10044-0.69699 0.0532-0.97927 0.3415-0.28228 0.28827-0.60792 0.42743-0.72366 0.30924-0.11573-0.11819-0.21042-0.0234-0.21042 0.21058 0 0.23401-0.15296 0.32893-0.33991 0.21094-0.18695-0.118-0.33992-0.0399-0.33992 0.17356s-0.15296 0.29157-0.33991 0.17357-0.33991-0.0751-0.33991 0.0952c0 0.17037-0.21397 0.30977-0.47548 0.30977-0.26152 0-1.2464 0.3387-2.1887 0.75266-2.3091 1.0145-3.5725 1.5465-3.8791 1.6337-0.14022 0.0399-0.36966 0.10999-0.50988 0.15584-0.14021 0.0459-0.53933 0.0527-0.88693 0.0151-0.4279-0.0462-0.54711 0.0721-0.36914 0.36615 0.18734 0.30955 0.0915 0.36722-0.33343 0.20068-0.32797-0.12852-0.7737-0.11877-0.99052 0.0217-0.21682 0.14044-1.0707 0.2581-1.8976 0.26147-1.2013 5e-3 -1.6964-0.19103-2.4644-0.97519-0.52856-0.53972-0.96323-1.0864-0.96594-1.215-3e-3 -0.12851-1.0447-1.3695-2.3155-2.7577s-2.2496-2.5864-2.175-2.6625c0.0746-0.0761-0.2588-0.40232-0.7408-0.72484-0.482-0.32253-0.79216-0.72553-0.68926-0.89557 0.10291-0.17002 0.0299-0.30914-0.16221-0.30914s-0.26159-0.23342-0.15439-0.5187c0.10719-0.28529 0.3145-0.44322 0.46068-0.35096 0.14618 0.0923 0.45481-0.0648 0.68583-0.34912 0.23103-0.28428 0.30611-0.51688 0.16685-0.51688s-0.0841-0.20807 0.12258-0.46239c0.27639-0.3401 0.26492-0.6027-0.0434-0.99289-0.55098-0.69736-1.6088-1.0648-1.6088-0.55875 0 0.21675-0.0928 0.29934-0.20618 0.18354-0.26934-0.27506-1.129 0.5365-0.92778 0.87589 0.26716 0.45064-0.7461 0.28262-1.4354-0.23804-0.6344-0.47918-0.60199-0.55884 0.84112-2.0677 0.82552-0.86315 1.6112-1.4997 1.746-1.4147 0.25309 0.15973 0.85759-0.44169 1.058-1.0526 0.0626-0.19092 0.21034-0.31429 0.32822-0.27416 0.11789 0.0401 5.395-5.2679 11.727-11.796 6.332-6.5278 11.608-11.839 11.725-11.803 0.11701 0.0361 1.2642-1.0466 2.5494-2.406s2.3711-2.4537 2.4133-2.4318c0.0422 0.022 0.49-0.17904 0.9951-0.44665 0.81402-0.43128 0.96819-0.41958 1.3571 0.10301 0.2413 0.32426 0.44359 0.46042 0.44954 0.30258 6e-3 -0.15784 0.41224 0.20023 0.90289 0.79571 0.49064 0.59548 0.95747 1.0159 1.0374 0.93429 0.0799-0.0816 0.92156 0.68981 1.8703 1.7143 0.94875 1.0245 1.8412 1.7893 1.9833 1.6996 0.30498-0.1925 1.0878 0.68083 0.83848 0.93544-0.0939 0.0959 0.70804 1.0188 1.7822 2.0508 1.0741 1.032 1.92 1.9846 1.8798 2.1168-0.0402 0.13221 0.32696 0.56179 0.81597 0.95461s0.75376 0.71942 0.58834 0.72577c-0.16543 6e-3 0.0603 0.31877 0.50168 0.69426 0.44136 0.37549 0.6708 0.68791 0.50987 0.69426-0.16093 6e-3 0.0451 0.29938 0.45776 0.65117 0.41269 0.35179 0.65848 0.73344 0.5462 0.84811-0.11229 0.11467 0.0463 0.30664 0.35241 0.4266 0.30612 0.11996 0.47128 0.35905 0.36702 0.53132-0.10425 0.17226 0.0487 0.40658 0.33992 0.52069 0.2912 0.11412 0.44483 0.34733 0.34139 0.51825-0.10343 0.17092-0.0171 0.31076 0.19197 0.31076 0.20902 0 0.28483 0.15731 0.16847 0.34958-0.11635 0.19227 0.0267 0.44295 0.3179 0.55707 0.29121 0.11412 0.44484 0.34733 0.3414 0.51824-0.10343 0.17092-0.0171 0.31076 0.19197 0.31076 0.20902 0 0.2855 0.15621 0.16996 0.34713s-0.0391 0.34713 0.16996 0.34713c0.20902 0 0.2855 0.15621 0.16995 0.34713-0.11554 0.19093-0.0481 0.34714 0.1499 0.34714 0.19798 0 0.32967 0.11715 0.29263 0.26034-0.12632 0.48832 0.4521 1.8224 0.79013 1.8224 0.18539 0 0.24254 0.15621 0.127 0.34713-0.11555 0.19092-0.0226 0.34713 0.20655 0.34713 0.22914 0 0.32003 0.0986 0.20197 0.21921-0.11806 0.12056-0.0363 0.55014 0.18167 0.95461s0.44589 1.041 0.50649 1.4146c0.0606 0.37355 0.29752 0.80074 0.52649 0.94929 0.22897 0.14856 0.28286 0.27249 0.11975 0.27542-0.1631 3e-3 -0.12619 0.21495 0.082 0.47117 0.20822 0.25622 0.29916 0.54697 0.20207 0.64612-0.0971 0.0991-1e-3 0.6315 0.21311 1.183 0.2143 0.55151 0.44306 1.5371 0.50835 2.1902 0.0653 0.65313 0.29297 1.2975 0.50595 1.4319 0.23989 0.15141 0.26108 0.32404 0.0557 0.45367-0.27532 0.17377-0.56563 1.261-0.94057 3.5224-0.0317 0.19092-0.2964 0.89231-0.58833 1.5586-0.29192 0.66634-0.46883 1.3138-0.39314 1.4389 0.0757 0.12508-0.0884 0.31597-0.36456 0.42421-0.31059 0.12172-0.41749 0.4222-0.2802 0.78758 0.15087 0.40151 0.0938 0.50988-0.17808 0.33827-0.22712-0.14334-0.48792-0.0187-0.60326 0.28819-0.11174 0.29739-0.3401 0.45428-0.50746 0.34865-0.16737-0.10563-0.3043-0.0315-0.3043 0.16467 0 0.1962-0.1912 0.28321-0.42489 0.19336-0.23369-0.0898-0.88378 0.12562-1.4446 0.4788-1.4049 0.88473-8.2162 7.2395-8.4627 7.8956-0.11016 0.29316-0.33892 0.44553-0.50836 0.33859-0.16944-0.10695-0.78236 0.35721-1.362 1.0315s-1.0591 1.1033-1.0653 0.95349c-6e-3 -0.14984-0.30386 0.0859-0.66141 0.52385-0.35756 0.43795-0.73327 0.79369-0.83491 0.79054-0.31257-0.01-1.3718 0.43357-1.5516 0.64929-0.0935 0.11218-0.4814 0.15614-0.86206 0.0977zm-18.056-11.967c0.57617-0.6117 0.49418-1.3342-0.20233-1.7828-0.77188-0.49723-1.6797 0.0592-1.8393 1.1274-0.0688 0.46051 0.0236 0.6956 0.22371 0.56928 0.18751-0.11835 0.34094-0.0498 0.34094 0.15243 0 0.50655 0.97882 0.46261 1.477-0.0663zm-7.3478-1.7439c0.34145 0.1338 0.45892 0.073 0.31584-0.16342-0.12531-0.20706-0.0357-0.44784 0.19917-0.53506 0.66678-0.24763-0.18064-1.4549-1.0544-1.5022-0.4004-0.0217-0.72801 0.10472-0.72801 0.28084s-0.13501 0.23501-0.30002 0.13086-0.2819 0.2636-0.25974 0.81722c0.0222 0.55363 0.14659 0.93949 0.27653 0.85748 0.12994-0.082 0.35131 0.041 0.49194 0.27336 0.18576 0.30696 0.29113 0.31384 0.38536 0.0252 0.0713-0.21852 0.37433-0.30144 0.67335-0.18426zm15.704-0.92388c0.59092-0.3819 0.71501-1.5008 0.21722-1.9587-0.45328-0.41703-1.3641-0.42448-1.439-0.0118-0.0308 0.16957-0.24002 0.4245-0.46501 0.5665-0.30078 0.18984-0.24098 0.44517 0.2259 0.96449 0.74546 0.82921 0.82211 0.85227 1.4608 0.43948zm6.8222-5.2294c0-0.19092 0.18212-0.30808 0.40471-0.26034 0.58408 0.12524 0.7457-1.0488 0.21496-1.5615-0.62494-0.60376-1.6703-0.53971-2.0824 0.1276-0.40338 0.65307-0.0603 1.8384 0.44063 1.5222 0.18828-0.11883 0.34232-0.0506 0.34232 0.15156 0 0.20219 0.15296 0.36762 0.33991 0.36762s0.33991-0.15621 0.33991-0.34714zm7.6258-4.5496c-0.10328-0.17065-0.0583-0.31027 0.0999-0.31027s0.31093-0.31579 0.3394-0.70176c0.0285-0.38597-0.0919-0.61107-0.26758-0.50021-0.17564 0.11085-0.31934 0.0622-0.31934-0.10805 0-0.17029-0.33507-0.2844-0.74459-0.25359-0.96499 0.0726-1.5601 0.9928-1.0486 1.6213 0.4161 0.5112 2.241 0.74871 1.9408 0.25258zm7.1605-2.4053c0-0.74967-0.53307-1.7234-0.94345-1.7234-0.0782 0-0.43331 0.27337-0.78909 0.60748-0.56327 0.52898-0.67984 0.95103-0.51611 1.8686 0.0216 0.12085 0.53633 0.19346 1.1439 0.16136 0.93209-0.0493 1.1047-0.19208 1.1047-0.91399zm5.4386-1.0292c0-0.97696-0.13489-1.2219-0.6886-1.2506-0.37873-0.0196-0.83761 0.1366-1.0197 0.34713-0.43959 0.50815-0.51008 1.5977-0.10335 1.5977 0.17721 0 0.24181 0.13285 0.14354 0.29522-0.0983 0.16237 0.23687 0.27953 0.74475 0.26035 0.8222-0.031 0.9234-0.16802 0.9234-1.2498z"/>
 </g>
 <path d="m62.061 175.15c-0.80278-2.0364-1.6267-3.8174-1.8309-3.9576s-0.23785-0.25742-0.07474-0.26035c0.1631-3e-3 0.12619-0.21494-0.08203-0.47116-0.20822-0.25622-0.27794-0.56864-0.15492-0.69427 0.12301-0.12562 0.02884-0.2284-0.20927-0.2284-0.24084 0-0.34804-0.22594-0.24159-0.50922 0.42461-1.13-0.77396-3.8341-2.5453-5.7424-0.973-1.0483-1.7441-2.0192-1.7135-2.1576 0.11544-0.52271-2.2339-2.556-3.3569-2.9052-1.2646-0.39331-3.3801-0.0279-3.3801 0.58381 0 0.19673-0.15296 0.26115-0.33991 0.14315s-0.33991-0.0399-0.33991 0.17357c0 0.21345-0.13054 0.30571-0.2901 0.205s-0.77173 3e-3 -1.3604 0.22947c-1.2611 0.48613-1.7319 0.10673-3.2467-2.6162l-0.92402-1.6611 2.1458 0.1658c1.1802 0.0912 2.1458 0.18674 2.1458 0.21233 0 0.12899 0.86788 0.23114 7.5212 0.88521l2.0826 0.20474 1.6229-2.7178c0.89259-1.4948 1.6252-2.9131 1.6281-3.1518 0.0029-0.23865 0.15819-0.43391 0.34514-0.43391 0.18695 0 0.24625-0.0957 0.13177-0.21256-0.11448-0.11692 0.24172-0.7027 0.79156-1.3018 0.54984-0.59904 1.0004-1.2156 1.0013-1.37 8.49e-4 -0.15446 0.14513-0.19022 0.3206-0.0795 0.17546 0.11075 0.47062-0.0753 0.65592-0.41342 0.18529-0.33813 0.39184-0.53668 0.45901-0.44122 0.2043 0.29038 4.0057-2.2016 3.9497-2.5892-0.02872-0.19879 0.08459-0.67385 0.25178-1.0557 0.1672-0.38184 0.61197-1.773 0.98837-3.0914l0.68438-2.3971 2.8666-0.96918c1.5766-0.53304 3.3095-1.3036 3.8507-1.7122 0.54128-0.40868 1.0725-0.65286 1.1804-0.54262s3.37e-4 1.8032-0.2388 3.7622c-0.23929 1.959-0.48051 3.9523-0.53604 4.4296-0.73409 6.31-1.2195 14.247-1.0365 16.949 0.14133 2.0862 0.10065 3.162-0.11443 3.0263-0.18354-0.11585-0.24755-0.43994-0.14224-0.72021s0.01184-0.50958-0.20771-0.50958c-0.22036 0-0.32064-0.27213-0.22386-0.60748 0.28286-0.98003-0.6013-4.6728-1.2132-5.067-0.88703-0.5714-1.5497 0.27623-2.3647 3.0245-0.40388 1.362-0.76584 2.7108-0.80436 2.9971-0.03852 0.28639-0.25954 0.98933-0.49116 1.5621-0.23162 0.57277-0.44446 1.3928-0.47297 1.8222-0.02851 0.42944-0.18292 0.78091-0.34314 0.78105-0.16022 1.3e-4 -0.20326 0.23456-0.09565 0.52094 0.10761 0.28639 0.03113 0.5207-0.16996 0.5207-0.20109 0-0.28331 0.21904-0.18271 0.48676 0.1006 0.26771 0.07872 0.59315-0.04861 0.72319-0.12733 0.13003-0.25063 0.37962-0.274 0.55463-0.02337 0.17501-0.08073 0.39631-0.12747 0.49177-0.04674 0.0955-0.12322 0.32977-0.16996 0.5207-0.04674 0.19092-0.12322 0.42523-0.16996 0.52069-0.04674 0.0955-0.12322 0.32978-0.16996 0.5207-0.04674 0.19092-0.12322 0.42523-0.16996 0.52069-0.04674 0.0955-0.12322 0.32978-0.16996 0.5207-0.04674 0.19092-0.12322 0.42524-0.16996 0.5207-0.04674 0.0955-0.12322 0.32977-0.16996 0.52069-0.04674 0.19093-0.12221 0.46429-0.16772 0.60748-0.04551 0.1432-0.06463 0.37751-0.04249 0.5207s-0.12907 0.26035-0.33603 0.26035-0.29203 0.22422-0.18905 0.49827 0.05687 0.54741-0.10245 0.60748c-0.15932 0.0601-0.34193 0.42162-0.4058 0.80347-0.06386 0.38184-0.2385 0.78642-0.38808 0.89906-0.14958 0.11264-0.29655 0.53814-0.3266 0.94556-0.13063 1.771-0.90673 0.87443-2.298-2.6547z" fill-opacity=".76813" stroke="#979797" stroke-width=".3435"/>
 <g fill="#4d4d4d" fill-opacity=".76813" stroke="#979797">
  <g stroke-width=".3435">
   <path d="m146.12 158.62c-0.0419-1.1531-0.16537-3.2681-0.27437-4.7s-0.23896-4.0094-0.28879-5.7277c-0.0498-1.7183-0.2079-6.1129-0.35127-9.7657l-0.26065-6.6416 1.5604-0.60857c0.85822-0.33472 1.5604-0.74356 1.5604-0.90855 0-0.38338 0.77543-0.23242 1.0868 0.21157 0.13035 0.18588 0.12462 0.42019-0.0127 0.52069-0.13735 0.1005-0.50745 0.86762-0.82245 1.7047-0.55533 1.4757-0.55083 1.5548 0.14795 2.6035 0.39637 0.59483 2.1758 2.5936 3.9544 4.4416l3.2337 3.3601-0.6484 0.97904c-1.0029 1.5143-1.4361 2.7018-1.9765 5.4176-0.44714 2.2472-0.9727 6.9717-1.0316 9.2731-0.0331 1.2948-0.98716 1.801-3.5298 1.8727l-2.2709 0.0641z"/>
   <path d="m146.23 156.09c-0.38145-6.9949-0.85499-19.121-0.85064-21.782l4e-3 -2.4299 1.577-0.76179c0.86738-0.41899 1.6856-0.69326 1.8184-0.60949 0.13272 0.0838-0.0486 0.73297-0.40287 1.4427-1.2122 2.4282-1.0011 2.8444 4.2138 8.3058l2.6956 2.823-0.91095 1.5874c-1.0679 1.8609-2.0904 6.5822-2.4206 11.177-0.12716 1.7691-0.34195 3.3996-0.47729 3.6232-0.28398 0.46923-2.4101 1.0303-3.9499 1.0424l-1.055 8e-3z"/>
   <path d="m146.7 159.78c-2e-3 -0.26525-0.22926-5.1685-0.50398-10.896s-0.50214-11.867-0.50539-13.643l-6e-3 -3.2287 1.1788-0.50298c1.6088-0.68646 1.6074-0.68773 0.97912 0.91587-0.50938 1.3001-0.51075 1.5156-0.0163 2.5743 0.29675 0.63551 2.0098 2.7198 3.8068 4.6318l3.2673 3.4763-0.75203 1.4995c-1.0982 2.1896-1.9264 5.8039-2.3971 10.46-0.46683 4.6183-0.48312 4.6425-3.3569 4.9901-1.3106 0.15851-1.6908 0.0961-1.6943-0.27788z"/>
   <path d="m147.04 159.73c-0.20844-2.4454-1.0022-21.319-1.0064-23.929-6e-3 -3.451 0.043-3.7241 0.69951-3.9369 0.94404-0.30599 1.08-0.094 0.6613 1.0307-0.53059 1.4252 0.29889 2.8471 3.9458 6.764l3.1817 3.4172-0.80601 1.8615c-0.94716 2.1875-1.7626 5.8486-2.263 10.159-0.43058 3.71-0.66144 4.2152-2.0566 4.5002-1.0852 0.22165-2.3428 0.29244-2.3564 0.13263z"/>
   <path d="m147.26 157.82c-0.29901-2.5513-0.97274-21.55-0.83918-23.664 0.0654-1.0351 0.27965-1.9359 0.47617-2.0019 0.2214-0.0743 0.30377 0.34838 0.21655 1.1114-0.17996 1.5742 0.785 3.099 4.3846 6.928l2.684 2.8551-0.82515 2.0738c-0.75168 1.8892-1.8552 7.0977-2.4016 11.335-0.25352 1.9662-1.1268 3.0124-2.5143 3.0124-0.92474 0-1.0002-0.10532-1.1811-1.6489z"/>
   <path d="m147.57 157.65c-0.2393-1.8204-0.8676-17.12-0.8589-20.915l6e-3 -2.777 0.62619 1.4079c0.3444 0.77434 1.9406 2.8184 3.547 4.5424l2.9208 3.1345-0.81777 2.4014c-0.44977 1.3208-1.2123 4.5829-1.6945 7.2491-0.95264 5.2674-1.444 6.4318-2.7142 6.4318-0.70899 0-0.8476-0.20146-1.0151-1.4753z"/>
   <path d="m40.486 172.23c-2.1386-0.11902-20.442-1.7978-20.843-1.9117-0.12739-0.0362-0.57895 0.1308-1.0035 0.37112-0.95891 0.54283-1.3762 0.29265-1.9822-1.1885-0.77076-1.8839-0.60107-3.2995 0.5693-4.7495l1.0445-1.294 2.9495 4e-3c3.816 5e-3 10.493 0.60613 13.228 1.1917 1.1813 0.25287 2.717 0.85133 3.4127 1.3299 0.6957 0.47857 2.5651 1.5114 4.1542 2.2952 3.36 1.6572 5.0909 2.955 4.5888 3.4405-0.42429 0.41032-3.4273 0.66147-6.1184 0.5117z"/>
  </g>
  <g stroke-width=".3435">
   <path d="m21.588 182.86c-1.7217-0.26097-3.3433-1.007-4.0327-1.8553-0.37388-0.46006-0.3532-0.65599 0.12638-1.1972 0.88399-0.99754 3.0254-1.6613 7.8483-2.4327 8.7887-1.4057 11.544-1.3301 12.42 0.34054 0.34799 0.66403 0.45138 2.4051 0.14282 2.4051-1.9643 0-9.8899 1.3429-12.053 2.0422-2.2511 0.72782-3.2344 0.88184-4.4519 0.69731z"/>
   <path d="m18.218 176.21c-0.41974-0.99643-0.78185-2.2777-0.80469-2.8472-0.03518-0.8772 0.15927-1.1335 1.272-1.6764 1.2884-0.62861 1.4909-0.62386 10.587 0.24839 5.1005 0.48909 10.513 0.88926 12.028 0.88926s2.7545 0.093 2.7545 0.20676c0 0.7884-3.6194 5.0002-4.2969 5.0002-0.23095 0-0.91674-0.46342-1.524-1.0298-1.4257-1.3299-3.0381-1.565-7.2922-1.0632-3.7135 0.43799-11.349 1.6976-11.724 1.9339-0.13045 0.0823-0.58061-0.66557-1.0004-1.662z"/>
   <path d="m47.022 194.98c-1.6318-0.79708-2.967-1.5612-2.967-1.698s0.39056-0.34889 0.86792-0.47124c0.93551-0.23978 4.6367-3.9756 4.372-4.413-0.08814-0.14566 0.12631-0.42145 0.47657-0.61289 0.35026-0.19143 1.2104-1.1985 1.9114-2.2379 1.2557-1.862 1.2749-1.9403 1.2967-5.3133 0.03071-4.7312-1.4106-8.9729-4.0026-11.78-0.60132-0.65112-1.0331-1.1839-0.95946-1.1839 0.47829 0-1.1417-2.234-2.3427-3.2307-3.6875-3.0601-5.6668-3.4322-8.4734-1.593-0.90439 0.59267-1.6443 1.1914-1.6443 1.3305 0 0.27509-0.54586 0.25064-2.3794-0.1066-2.268-0.44188-8.314-0.94909-12.407-1.0408-1.8257-0.0409-2.128-0.15489-2.8838-1.0871-0.46437-0.57276-0.92326-1.1195-1.0197-1.215-0.33263-0.3291-0.30268-2.0828 0.03558-2.0828 0.18644 0 0.24445-0.15621 0.12891-0.34713-0.11554-0.19093-0.03906-0.34714 0.16996-0.34714 0.20902 0 0.2855-0.15621 0.16996-0.34713s-0.03906-0.34713 0.16996-0.34713c0.20902 0 0.29024-0.14837 0.1805-0.32971-0.10974-0.18134 0.11495-0.5016 0.49933-0.71168 0.38438-0.21008 0.6225-0.50816 0.52916-0.66239-0.09334-0.15423 0.36126-0.57244 1.0102-0.92935s1.1799-0.75613 1.1799-0.88717c0-0.27644 3.4055-0.1677 6.1184 0.19538 1.0282 0.1376 3.6286 0.2805 5.7785 0.31754 2.15 0.037 4.1089 0.19682 4.3532 0.35508 0.24432 0.15826 0.82937 0.18902 1.3001 0.0684 0.65424-0.16769 1.1315 0.0277 2.0253 0.82916 0.64316 0.5767 1.157 1.1351 1.142 1.2408-0.07472 0.52368 2.491 4.6795 2.8891 4.6795 0.25259 0 1.7839-0.56628 3.4029-1.2584l2.9436-1.2584 1.1641 0.64023c0.64026 0.35212 1.7258 1.473 2.4122 2.4909 0.68648 1.0179 1.6448 2.1694 2.1296 2.5588 0.48483 0.38946 0.88846 0.88923 0.89696 1.1106 0.0085 0.22136 0.21846 0.35703 0.4666 0.30149 0.27911-0.0625 0.37609 0.0987 0.25433 0.4228-0.10825 0.28808-0.04804 0.61768 0.1338 0.73245 0.18184 0.11476 0.25195 0.33865 0.1558 0.49752-0.26191 0.43278 1.1568 4.8701 1.5571 4.8701 0.19047 0 0.25178 0.1562 0.13624 0.34713-0.11554 0.19092-0.04809 0.34713 0.1499 0.34713 0.19799 0 0.32193 0.11715 0.27544 0.26035-0.13604 0.41896 1.2197 4.2524 1.5039 4.2524 0.14237 0 0.16118 0.25994 0.0418 0.57764-0.13591 0.36169-0.08195 0.49237 0.14432 0.34956 0.23714-0.14967 0.34464 0.30779 0.3127 1.3306-0.02679 0.85731-0.17243 1.5592-0.32368 1.5597s-0.18046 0.15713-0.06492 0.34805c0.11554 0.19092 0.03906 0.34713-0.16996 0.34713-0.20902 0-0.2855 0.15621-0.16996 0.34713 0.11554 0.19093 0.05202 0.34714-0.14117 0.34714-0.34436 0-1.4384 1.8502-1.3649 2.3083 0.02053 0.12803-0.20902 0.37358-0.51013 0.54567-0.30111 0.17208-0.46866 0.44312-0.37232 0.60231 0.09633 0.15918-0.0631 0.38279-0.35431 0.49691-0.2912 0.11411-0.44416 0.34843-0.33991 0.52069 0.10426 0.17227-0.04871 0.40658-0.33991 0.5207-0.2912 0.11412-0.44416 0.34843-0.33991 0.52069 0.10426 0.17227-0.04871 0.40659-0.33991 0.5207-0.2912 0.11412-0.44416 0.34843-0.33991 0.5207 0.10426 0.17226-0.06091 0.41136-0.36702 0.53132-0.30611 0.11996-0.45917 0.31758-0.34012 0.43915s-0.09106 0.441-0.4669 0.70984c-0.37584 0.26884-0.60519 0.61796-0.50966 0.77581 0.09553 0.15785-0.05629 0.37713-0.33738 0.48729-0.28109 0.11015-0.47141 0.32616-0.42294 0.48003 0.14243 0.45212-3.7717 3.9051-4.4266 3.9051-0.32918 0-1.9336-0.65215-3.5655-1.4492z"/>
   <path d="m24.064 187.33-2.7084-3.5623 1.2371-0.10656c0.6804-0.0586 2.2164-0.41234 3.4133-0.78607s2.2113-0.63819 2.2542-0.5877c0.0429 0.0505 0.30976 1.4977 0.59303 3.216 0.55488 3.3659 0.52351 3.4952-1.1425 4.7067l-0.93824 0.68227z"/>
   <path d="m182.77 250.79c-0.25263-0.31086-0.53403-1.6314-0.62532-2.9345-0.27816-3.9702 1.2532-5.9518 4.5994-5.9518 1.16 0 1.544-0.21501 2.7288-1.5276 2.4797-2.7473 3.4868-5.7781 2.2643-6.8142-0.28732-0.24352-1.2399-1.6655-2.1168-3.1599-2.6129-4.4527-3.4211-4.0699-3.8977 1.8465-0.2643 3.2809-0.43381 4.0418-1.0297 4.6217-1.2957 1.2612-2.4479 1.9046-3.4147 1.9069-0.80879 2e-3 -1.0659-0.2485-1.6904-1.6466-0.64002-1.4329-0.73337-2.2399-0.7128-6.1616 0.021-3.9981 0.54632-10.013 1.0232-11.716 0.1229-0.4387-0.0251-0.60748-0.53255-0.60748-1.0995 0-0.84469-0.51693 1.0818-2.195 2.0873-1.8182 4.789-3.3591 5.8894-3.3591 0.70059 0 0.81367 0.24828 1.1857 2.6035 0.42793 2.709 0.84005 3.2805 1.189 1.6489 0.88316-4.129 1.5938-6.5695 2.0441-7.0198 0.47695-0.47693 0.61566-0.4255 1.3786 0.51111 1.4511 1.7814 3.3893 4.7774 4.3648 6.747 0.94274 1.9034 1.1079 3.2796 0.67927 5.6601-0.21271 1.1813-0.11878 1.4164 1.0384 2.5981 1.2523 1.2788 2.1933 3.4318 2.9061 6.6487 0.37171 1.6776-0.18561 3.7784-1.5306 5.7695-0.48641 0.72007-0.72344 1.6684-0.76821 3.0734-0.0787 2.471-0.30929 2.7632-4.3016 5.4518-5.152 3.4696-10.662 5.3478-11.753 4.0059z"/>
   <path d="m198.01 224.7c-0.35789-0.44038-0.36489-0.85344-0.0357-2.1102 0.68436-2.6131-0.49984-5.6529-4.1362-10.618-1.7976-2.4543-2.6498-3.0273-3.4695-2.3326-0.5107 0.43285-1.8238 4.3588-1.8947 5.6645-0.0222 0.40946-0.22077-0.0366-0.44125-0.99118-0.34796-1.5066-0.52265-1.7502-1.3235-1.8459-1.2793-0.15288-4.1114 1.2555-6.4404 3.2028-2.1716 1.8157-2.4112 1.7209-2.2282-0.88133l0.10642-1.5131 4.7588-2.6987c5.5283-3.135 10.24-6.3071 10.715-7.2135 0.18259-0.34843 0.33198-1.7971 0.33198-3.2193 0-2.3112 0.0737-2.6055 0.69379-2.7711 0.54906-0.14663 0.65336-0.0552 0.49996 0.43841-0.10661 0.34304 0.11654 2.0467 0.4959 3.786 0.78953 3.6198 0.85831 4.9414 0.28752 5.5244-0.71951 0.73479-0.01 0.85981 1.634 0.28782 0.88472-0.30785 1.7182-0.55974 1.8523-0.55974 0.33929 0 2.5147 5.6849 3.0251 7.9055l0.42083 1.8307-1.425 1.5788c-1.6942 1.877-3.1963 5.1153-2.9111 6.2758 0.23256 0.94627 0.0971 1.0144-0.51623 0.25965z"/>
   <path d="m176.16 218.41c-0.12685-0.12954-0.13572-0.75218-0.0197-1.3836 0.16342-0.88965-0.0316-1.624-0.86626-3.2618-0.85616-1.68-0.99437-2.2156-0.67361-2.6102 0.25277-0.31104 0.32318-1.0098 0.18846-1.8703l-0.2151-1.3737 4.8146-2.4948c5.6721-2.9392 10.384-6.0706 11.83-7.8622 1.2894-1.5975 1.3311-3.1161 0.20723-7.5461-0.43592-1.7183-0.74103-3.182-0.67804-3.2526 0.063-0.0707 0.47588-0.0358 0.91752 0.0774 0.75308 0.19302 0.79395 0.33356 0.65745 2.2606-0.0812 1.1468 0.0967 3.2755 0.40254 4.8171 0.30144 1.5193 0.54807 4.1785 0.54807 5.9094v3.1472l-1.2906 1.0439c-1.7873 1.4456-6.0542 4.1101-10.097 6.3047-1.8695 1.015-3.6668 2.0792-3.994 2.3648-0.66949 0.58451-0.80632 2.9611-0.27867 4.84 0.29018 1.0333 0.25289 1.1259-0.45321 1.1259-0.42318 0-0.87319-0.10599-1-0.23553z"/>
   <path d="m90.178 109.94c-2.2043-3.449-3.9504-6.3296-3.8803-6.4012 0.11107-0.11342 7.8785 9.0897 8.9852 10.646 0.3388 0.47644 0.27824 0.70648-0.34288 1.3024l-0.75436 0.72373z"/>
  </g>
  <path d="m86.656 103.59c-0.34432-0.37429-0.45204-0.38422-0.50195-0.0463-0.02794 0.18922-0.40786-0.31655-1.3948-1.8569-0.74603-1.1643-1.3392-2.1346-1.3181-2.1561 0.0211-0.0216 0.83814 0.92977 1.8157 2.114 0.97752 1.1843 1.7556 2.1754 1.7291 2.2024-0.02649 0.0271-0.17498-0.0887-0.32997-0.25715z" stroke-width=".12145"/>
  <path d="m93.791 115.94c-0.18975-0.30232-0.37204-0.60816-0.40509-0.67963-0.03305-0.0715-0.34401-0.55549-0.69102-1.0756-0.34701-0.52009-0.63093-1.0033-0.63093-1.0739 0-0.0706-0.05408-0.12827-0.12018-0.12827-0.0661 0-0.12018-0.0828-0.12018-0.18409 0-0.10125-0.05408-0.1841-0.12018-0.1841-0.0661 0-0.12018-0.0828-0.12018-0.18409 0-0.10125-0.05408-0.18409-0.12018-0.18409-0.0661 0-0.12018-0.062-0.12018-0.13783 0-0.0758-0.24336-0.48611-0.5408-0.91178-0.29744-0.42567-0.5408-0.83309-0.5408-0.90537 0-0.0723-0.05408-0.13142-0.12018-0.13142-0.0661 0-0.12018-0.0829-0.12018-0.1841 0-0.10125-0.05408-0.18409-0.12018-0.18409-0.0661 0-0.12018-0.0828-0.12018-0.18409 0-0.10126-0.05408-0.1841-0.12018-0.1841-0.0661 0-0.12018-0.0828-0.12018-0.18409 0-0.10125-0.05408-0.1841-0.12018-0.1841-0.0661 0-0.12018-0.0628-0.12018-0.13959 0-0.19716-1.3475-2.315-1.473-2.315-0.05692 0-0.07212-0.0518-0.03378-0.11519 0.03834-0.0634-0.0087-0.16-0.10455-0.21478-0.09584-0.0548-0.17022-0.14587-0.16528-0.20244 0.0049-0.0566-0.24275-0.5281-0.55041-1.0478-0.65316-1.1034-0.85514-1.6846-0.61774-1.7777 0.08695-0.0341 0.2443 0.0353 0.34965 0.15421 0.22857 0.25793 0.25166 0.43024 0.04134 0.30838-0.08262-0.0479 0.01825 0.10075 0.22417 0.33026 1.5528 1.7308 7.3125 8.6121 8.1385 9.7234 0.61509 0.82752 0.58145 1.0776-0.26625 1.9792l-0.70655 0.75143zm1.012-0.5381c0.27815-0.28943 0.50573-0.61718 0.50573-0.72834 0-0.11114-0.33391-0.63372-0.74202-1.1613-1.3714-1.7728-7.263-8.7525-7.388-8.7525-0.0747 0-0.13651-0.10195 1.9346 3.191 3.2356 5.1445 5.0524 7.9754 5.1189 7.9764 0.03581 5.2e-4 0.29269-0.23581 0.57084-0.52525z" stroke-width=".12145"/>
  <path d="m187.12 199.46c-0.0914-0.26015-1.2446-3.5064-2.5625-7.214-1.318-3.7076-2.3532-6.8732-2.3004-7.0348 0.0527-0.16157 1.5325 2.8359 3.2884 6.661 1.7559 3.8251 3.1317 6.9959 3.0575 7.0462-0.0743 0.0503-0.40089 0.29917-0.72584 0.55303-0.49286 0.38503-0.61839 0.38313-0.75702-0.0114z" stroke-width=".3435"/>
  <path d="m126.74 281.78-2.5823-1.3486-0.75917-3.9278c-2.0742-10.731-4.6922-20.245-6.6869-24.298-0.97608-1.9837-2.8622-4.1021-3.6524-4.1021-0.12257 0-0.22285 0.90158-0.22285 2.0035 0 2.4491-0.94434 6.0642-2.1174 8.1059-0.48015 0.83569-1.6531 2.3005-2.6065 3.2551-1.5952 1.5972-2.2315 2.9506-1.3873 2.9506 0.19096 0 0.50846 0.36143 0.70554 0.80316 0.48341 1.0835-0.31818 4.18-2.2313 8.6193-0.91656 2.1269-1.3421 3.5057-1.1243 3.6432 0.40223 0.25386 0.0891 4.2606-0.36959 4.729-0.38261 0.39072-10.548-4.6086-15.594-7.6687-5.9157-3.588-8.2805-5.9479-7.7313-7.7152 0.33852-1.0892-0.7194-1.2077-2.1388-0.23949-0.69644 0.47506-3.3312 2.616-5.8551 4.7575-2.5239 2.1416-5.1624 4.1955-5.8635 4.5643l-1.2747 0.67052-0.0037-2.8709c-0.0021-1.579-0.09811-3.4539-0.21345-4.1665-0.2502-1.5457-0.77494-1.3247 5.9957-2.5248 10.107-1.7913 17.528-4.1286 19.31-6.0812 0.40099-0.43956 0.90685-1.3595 1.1241-2.0443 0.21728-0.68483 1.0519-2.7458 1.8548-4.58 2.8647-6.5447 3.0479-8.1914 0.99963-8.9866-0.46968-0.18237-0.85396-0.49165-0.85396-0.6873s-0.22944-0.35572-0.50987-0.35572c-0.9001 0-0.54912-1.2077 1.0161-3.4964 0.83927-1.2272 1.5276-2.3727 1.5296-2.5456 2e-3 -0.1729-0.35607-0.79773-0.79574-1.3885-0.43967-0.59079-1.0659-1.6026-1.3917-2.2484-0.48843-0.96831-0.51217-1.2317-0.13536-1.5017 0.35191-0.25222 0.36044-0.36758 0.0371-0.50184-0.32845-0.1364-0.32007-0.37623 0.03851-1.1018 0.63204-1.2788 2.4115-6.8826 3.3809-10.647l0.80453-3.1242 2.007-0.25951c1.1038-0.14273 6.615-0.16189 12.247-0.0426l10.24 0.21693 0.55219 1.1825c0.70835 1.517 0.70136 1.5576-0.22749 1.3195-1.2057-0.30904-1.872 0.74287-2.1357 3.3715-0.28836 2.8743 0.0572 5.3515 0.86099 6.1724 0.59457 0.6072 0.5932 0.6976-0.0397 2.6122-0.76107 2.3022-1.2805 8.5401-1.295 15.552-0.0134 6.4719 0.14239 6.8229 3.804 8.5702 2.5414 1.2127 23.361 10.215 29.395 12.71 1.9254 0.7962 2.4921 1.1965 2.6605 1.8795 0.36353 1.4739 1.209 3.0607 1.7421 3.2696 0.27953 0.10955 0.81608 0.0309 1.1923-0.17471 0.58909-0.32198 0.85711-0.16948 1.9299 1.098 1.1194 1.3226 2.7125 4.6656 2.7578 5.7871 0.0105 0.26003-0.41618 0.43391-1.0648 0.43391-0.5953 0-1.7632 0.33658-2.5953 0.74794-1.5016 0.74234-1.5221 0.74299-2.7416 0.0868-0.6758-0.36365-3.8443-3.2777-7.0411-6.4756-5.1441-5.146-6.6942-6.4596-6.5543-5.5541 0.1223 0.79101-0.20639 1.3495-1.8248 3.1003-1.9065 2.0625-11.162 9.842-11.675 9.813-0.16879-9e-3 -1.4689-0.62423-2.8892-1.366z" stroke-width=".3435"/>
 </g>
 <g fill="#a00" fill-opacity=".76813" stroke="#979797" stroke-width=".3435">
  <path d="m88.965 281.76-11.805-4.8397-6.1794 2.9469c-3.3987 1.6208-6.2165 2.9469-6.2619 2.9469-0.22437 0-0.52242-4.2059-0.33971-4.7938 0.12026-0.38696 0.63176-0.76361 1.1925-0.87814 0.98253-0.20067 3.4545-2.0613 9.8741-7.4322 1.8827-1.5751 3.5587-2.8638 3.7245-2.8638 0.16584 0 0.40779 0.49408 0.53766 1.0979 0.57127 2.6562 5.6951 6.3111 16.304 11.63 3.5521 1.7809 6.6112 3.2905 6.798 3.3548 0.43467 0.14956-1.1799 3.7097-1.6724 3.6876-0.20174-9e-3 -5.6791-2.1943-12.172-4.8562z"/>
  <path d="m29.551 152.73-2.2158-0.11961-0.75839-2.996c-0.41712-1.6478-0.98785-3.2549-1.2683-3.5714-0.28045-0.31647-0.5099-0.66398-0.5099-0.77223 0-0.10826 0.77093-0.70204 1.7132-1.3195 1.778-1.1652 2.0063-1.8189 0.70352-2.014-0.41758-0.0626-1.0659-0.60929-1.4406-1.215-1.005-1.6242-0.76079-6.9452 0.44189-9.628 0.92336-2.0597 2.4873-3.8544 4.1018-4.7071 1.2587-0.66471 1.2862-0.63033 2.5317 3.167 0.75821 2.3117 0.91466 3.4169 0.93354 6.5955 0.02052 3.4531-0.0639 4.0007-0.88234 5.7232-0.49777 1.0476-0.82076 2.044-0.71777 2.2141 0.103 0.17019 0.32666 0.0551 0.49703-0.25583 0.3653-0.66661 1.514-0.75392 1.7285-0.13136 0.08221 0.23865 0.03009 0.76437-0.11583 1.1683s-0.37428 2.3956-0.50745 4.4259l-0.24214 3.6916-0.88837-0.068c-0.48861-0.0374-1.8855-0.12181-3.1042-0.18759z"/>
  <path d="m46.653 210.09c-4.7602-2.8982-6.416-4.0795-6.4969-4.6352-0.14768-1.014-0.74116-0.94868-0.74116 0.0815 0 0.49131-0.2416 0.89687-0.59485 0.99853-0.32717 0.0942-1.5979 0.5627-2.8239 1.0412-2.1447 0.8371-2.2733 0.84826-3.3991 0.29508-0.64354-0.31621-2.3173-1.0822-3.7194-1.7021l-2.5493-1.1272-3.2292 1.0424c-1.776 0.57332-3.4712 1.0452-3.767 1.0485-0.32253 4e-3 -0.68624-0.48773-0.90858-1.2276-0.33765-1.1235-0.30479-1.2598 0.36786-1.5262 2.1033-0.83289 12.652-5.2996 12.749-5.3987 0.10034-0.10183-2.0921-14.468-2.496-16.355-0.14867-0.69469 0.04925-0.75957 3.587-1.1757 2.0594-0.24225 3.8231-0.36001 3.9194-0.2617 0.09627 0.0983 0.54702 3.5172 1.0017 7.5976 0.45464 4.0804 0.90795 7.8956 1.0073 8.4784 0.15581 0.91347 1.2354 1.8407 7.8336 6.7279 4.2091 3.1176 7.7084 5.7651 7.7764 5.8831 0.06794 0.11808 0.22909 1.0143 0.35812 1.9916 0.39231 2.9716-0.35233 2.8036-7.875-1.7764z"/>
 </g>
 <path d="m39.417 281.7c6.73e-4 -0.24635-1.6937-16.747-3.7654-36.667s-3.6915-36.296-3.5996-36.39c0.09194-0.0939 0.47598-2e-3 0.85342 0.20435 0.54319 0.29688 1.2678 0.1561 3.4759-0.67535 1.5343-0.57772 2.8718-0.96652 2.9722-0.864 0.23782 0.24288 5.8682 72.232 5.7562 73.597l-0.08547 1.0414-2.8043 0.10082c-2.1152 0.0761-2.804-9e-3 -2.8029-0.34715z" fill="#f2f2f2" fill-opacity=".76813" stroke="#979797" stroke-width=".3435"/>
 <path d="m153.76 285.86-10.618-4.6119-5.558 2.8082c-3.0569 1.5445-5.5914 2.8082-5.6322 2.8082-0.20181 0-0.46989-4.008-0.30555-4.5682 0.10817-0.36875 0.56823-0.72767 1.0726-0.83681 0.88373-0.19122 3.1071-1.9643 8.8812-7.0824 1.6933-1.5009 3.2008-2.729 3.35-2.729 0.14916 0 0.36677 0.47081 0.48359 1.0462 0.51382 2.5312 5.1224 6.014 14.664 11.082 3.1949 1.697 5.9464 3.1356 6.1144 3.1968 0.39096 0.14251-1.0613 3.5351-1.5042 3.514-0.18145-9e-3 -5.108-2.091-10.948-4.6276z" fill="#a00" fill-opacity=".76813" stroke="#979797" stroke-width=".31801"/>
 <g fill-opacity=".76813" stroke="#979797">
  <path d="m180.69 182c-0.74847-2.1157-1.341-3.8669-1.3168-3.8917 0.0242-0.0247 0.83884 1.6746 1.8103 3.7764 0.97147 2.1017 1.7438 3.8443 1.7163 3.8724-0.0275 0.0281-0.13653-0.11972-0.24225-0.3285-0.25347-0.50057-0.52078-0.49151-0.569 0.0193-0.0288 0.30523-0.35714-0.50421-1.3985-3.4478z" stroke-width=".12145"/>
  <path d="m128.39 83.52c-2e-3 -0.0533 0.099-0.30184 0.22356-0.55228 0.576-1.158 1.214-3.9585 1.2152-5.3338 3.4e-4 -0.32064 0.0199-0.58297 0.0436-0.58297 0.0416 0 2.1889 0.81395 2.8775 1.0907l0.3368 0.13538-1.7789 1.996c-0.97841 1.0978-2.0345 2.2993-2.3468 2.67-0.31236 0.37068-0.56924 0.63034-0.57085 0.57702z" stroke-width=".12145"/>
  <path d="m96.317 96.787c-0.33653-1.7487-0.47507-4.2766-0.3216-5.8678 0.10387-1.0769-0.01294-1.4723-0.88294-2.9886-0.79472-1.3851-2.0932-3.1076-4.4545-5.9093-1.1378-1.35-2.174-2.6039-2.3026-2.7864l-0.23377-0.33184 0.28971-0.19386c0.46531-0.31135 2.343-0.74571 2.5057-0.57961 0.07469 0.0763 0.18082 0.47487 0.23585 0.88576 0.22095 1.65 1.1772 3.0907 3.8393 5.7845 3.1348 3.1721 4.8106 4.3649 7.8934 5.6181 1.3888 0.5646 2.7145 1.242 3.8721 1.9785 1.625 1.0339 3.1207 1.1174 5.408 0.30158 0.69402-0.24752 2.5363-0.88016 4.0939-1.4059 3.0644-1.0342 4.2578-1.5864 6.3014-2.9157 1.3329-0.86692 2.5838-1.567 2.5838-1.4461 0 0.036-0.29114 0.65832-0.64698 1.3829-0.78498 1.5984-1.0548 2.494-1.4534 4.8236-0.16827 0.98355-0.37644 2.0329-0.46257 2.3319l-0.15662 0.54357-0.65319-0.0386c-0.35924-0.0213-3.5461-0.57577-7.0819-1.2322l-6.4287-1.1936-5.5854 1.8727c-3.072 1.03-5.7312 1.9054-5.9095 1.9454-0.30982 0.0695-0.32965 0.0439-0.44955-0.57913z" stroke-width=".12145"/>
 </g>
</svg>
