<?xml version="1.0" encoding="UTF-8" standalone="no"?><!-- Generator: Gravit.io --><svg xmlns="http://www.w3.org/2000/svg" xmlns:xlink="http://www.w3.org/1999/xlink" style="isolation:isolate" viewBox="0 0 560 315" width="560pt" height="315pt"><defs><clipPath id="_clipPath_jjjwF2V3J8EUwsEmsSEDRwQQvKz9amKk"><rect width="560" height="315"/></clipPath></defs><g clip-path="url(#_clipPath_jjjwF2V3J8EUwsEmsSEDRwQQvKz9amKk)"><defs><mask id="_mask_zrLHyj0dwF5ZnWZhJs63WpedUNquq4GF"><path d="M 168.642 -4.125 L 391.358 -4.125 L 391.358 310.875 L 168.642 310.875 L 168.642 -4.125 Z" style="stroke:black;fill:white;stroke-miterlimit:10;"/></mask><mask id="_mask_LlvQR60pgxNEbHUVOAYGqyNuOyktUdOT"><path d="M 168.642 -4.125 L 391.358 -4.125 L 391.358 310.875 L 168.642 310.875 L 168.642 -4.125 Z" style="stroke:black;fill:white;stroke-miterlimit:10;"/></mask></defs><g mask="url(#_mask_LlvQR60pgxNEbHUVOAYGqyNuOyktUdOT)"><g mask="url(#_mask_zrLHyj0dwF5ZnWZhJs63WpedUNquq4GF)"/></g><g mask="url(#_mask_zrLHyj0dwF5ZnWZhJs63WpedUNquq4GF)"><use xlink:href="#img_N9RSkoeXxym3oKjxpeBfvnwDoIJmqGcn" transform="matrix(0.28,0,0,0.28,168.642,-4.125)" preserveAspectRatio="none" style=""/></g><path d=" M 218.438 136.688 L 215.625 147.75 L 215.438 153.938 Q 211.5 150.375 210 151.5 Q 208.5 152.625 210.375 157.313 L 215.25 163.125 Q 221.063 164.25 222.375 164.063 C 223.688 163.875 226.313 171.75 230.438 169.125 Q 234.563 166.5 236.438 186.563 Q 245.438 157.688 246 161.063 Q 246.563 164.438 247.313 167.25" fill="rgb(17,86,102)" fill-opacity="0.41" vector-effect="non-scaling-stroke" stroke-width="1" stroke="rgb(0,0,0)" stroke-linejoin="miter" stroke-linecap="square" stroke-miterlimit="3"/><path d=" M 264.333 78.667 L 260 78 L 256.667 87.333 L 249.333 90.667 L 245.667 87 L 242 89.667 L 236.333 91 Q 207.333 113.333 208 118.333 C 208.667 123.333 206.333 139 213.667 136.333 C 221 133.667 245 163.667 249.333 140.667 L 246.667 167.333 L 251.333 170.333 L 253.333 189 L 248.333 211 L 229.333 256.667 Q 262.667 274.333 268.333 259 C 274 243.667 283 282.333 298 264.333 C 313 246.333 331.333 293.333 338.667 270.333 C 346 247.333 339.667 203.333 332.667 202.667 Q 325.667 202 323 139.333 Q 304 124.333 324.333 139.667 Q 344.667 155 357 134.667 Q 362.667 126.333 359.333 122.333 C 356 118.333 358.667 106 334.667 85 L 332.333 88.667 L 329 85 L 326 86.333 L 324 83 L 319.333 84.667 Q 320 72.333 316.333 72.667 Q 312.667 73 306.333 76.667" fill="rgb(17,86,102)" fill-opacity="0.59" vector-effect="non-scaling-stroke" stroke-width="1" stroke="rgb(0,0,0)" stroke-linejoin="miter" stroke-linecap="square" stroke-miterlimit="3"/><g style="isolation:isolate"/><path d=" M 271.068 64 C 265.966 61.954 263.65 57.957 261.842 52.862 C 261.842 51.567 263.987 51.049 263.987 51.049 C 262.677 51.049 261.172 49.92 260.769 48.459 C 260.697 48.2 260.616 47.944 260.554 47.682 C 260.473 47.339 260.298 46.998 260.34 46.645 C 260.376 46.337 260.586 46.088 260.769 45.868 C 260.951 45.648 261.198 45.523 261.412 45.35 C 261.627 45.178 261.842 45.005 262.056 44.832 C 264.937 42.514 262.056 44.135 262.056 40.17 C 262.056 38.097 266.646 33.334 267.85 31.881 C 269.411 29.996 268.551 27.619 271.283 26.96 C 278.664 25.177 283.262 23.333 290.164 23.333 C 295.383 23.333 298.153 28.275 301.322 29.55 C 301.322 29.55 304.97 33.953 304.97 33.953 C 306.154 39.671 305.965 36.991 309.476 38.875 C 312.26 40.368 306.525 43.165 311.192 44.573 C 314.044 45.434 310.725 46.782 310.119 48.977 C 309.704 50.481 301.832 57.557 300.893 58.042 C 300.202 58.4 296.466 60.728 295.958 60.115 C 294.91 58.85 294.431 58.271 294.027 57.783" fill="rgb(17,86,102)" fill-opacity="0.6" vector-effect="non-scaling-stroke" stroke-width="1" stroke="rgb(17,86,102)" stroke-linejoin="miter" stroke-linecap="square" stroke-miterlimit="3"/><g opacity="0.75"><path d=" M 269.358 67.796 C 272.698 69.279 298.66 75.789 301.239 68.538 C 303.818 61.286 298.81 81.876 301.239 84.84 C 303.668 87.804 276.949 97.066 273.913 91.509 C 270.876 85.951 268.751 85.21 269.358 82.246 C 269.966 79.282 266.018 66.314 269.358 67.796 Z " fill="rgb(255,255,255)" vector-effect="non-scaling-stroke" stroke-width="1" stroke="rgb(255,255,255)" stroke-linejoin="miter" stroke-linecap="square" stroke-miterlimit="3"/></g><path d=" M 299.25 79.875 Q 305.625 68.754 306.375 76.539" fill="none" vector-effect="non-scaling-stroke" stroke-width="1" stroke="rgb(255,255,255)" stroke-linejoin="miter" stroke-linecap="square" stroke-miterlimit="3"/><path d=" M 268.125 78 C 268.125 74.494 269.25 70.488 266.25 71.49" fill="none" vector-effect="non-scaling-stroke" stroke-width="1" stroke="rgb(255,255,255)" stroke-linejoin="miter" stroke-linecap="square" stroke-miterlimit="3"/><path d=" M 194.625 127.5 C 182.677 134.656 187.785 147.456 193.125 156 C 196.008 164.649 208.125 164.79 208.125 156.75 C 208.125 149.187 207.1 132.85 202.5 128.25 C 201.75 127.5 193.875 128.25 194.625 127.5 Z " fill="rgb(255,255,255)" vector-effect="non-scaling-stroke" stroke-width="1" stroke="rgb(255,255,255)" stroke-linejoin="miter" stroke-linecap="square" stroke-miterlimit="3"/><path d=" M 191.59 190.326 C 188.851 196.866 205.602 207.176 186.042 210.985 C 180.331 212.097 167.052 216.063 169.4 219.492 C 171.237 222.175 183.277 217.467 187.429 217.467 C 199.099 217.467 201.298 237.677 201.298 241.772 C 201.298 253.453 204.071 263.546 204.071 273.774 C 204.071 283.996 209.619 292.725 209.619 301.32 C 209.619 311.07 223.487 304.808 223.487 298.485 C 223.487 298.08 223.487 297.675 223.487 297.269 C 223.487 294.599 223.572 292.153 222.1 289.573 C 216.167 279.173 209.785 265.382 214.473 257.166 C 219.23 248.828 219.999 234.039 215.86 226.784 C 205.968 209.448 228.171 227.831 237.356 229.619 C 245.966 231.296 239.087 219.208 235.275 217.872 C 229.749 215.935 224.802 214.994 220.02 212.201 C 211.948 207.485 211.035 189.386 207.538 188.705 C 200.026 187.242 190.68 187.438 189.51 191.541 C 189.396 191.94 188.816 192.756 191.59 190.326 L 191.59 190.326 Z  M 217.94 257.976 C 222.877 260.272 222.822 262.177 223.487 265.672 L 217.94 257.976 L 217.94 257.976 Z " fill-rule="evenodd" fill="rgb(255,255,255)" vector-effect="non-scaling-stroke" stroke-width="1" stroke="rgb(255,255,255)" stroke-linejoin="miter" stroke-linecap="square" stroke-miterlimit="3"/><path d=" M 350.297 210.234 L 372.375 200.953 L 374.484 205.594 L 376.453 205.031 L 377.297 216.281 L 380.672 215.156 L 384.188 226.125 Q 379.406 229.219 379.828 231.328 C 380.25 233.438 378.563 232.453 379.969 235.406 Q 381.375 238.359 382.5 244.266 Q 379.969 248.906 379.969 251.016 Q 379.969 253.125 379.547 254.813 Q 364.781 265.922 363.234 263.391 C 361.688 260.859 357.609 255.516 361.125 253.688 C 364.641 251.859 366.891 253.125 369 251.297 C 371.109 249.469 371.813 247.078 371.672 244.969 C 371.531 242.859 373.5 245.813 370.406 241.594 C 367.313 237.375 366.328 236.531 366.328 237.516 C 366.328 238.5 366.891 248.063 365.484 247.219 C 364.078 246.375 361.406 252.563 360 249.75 C 358.594 246.938 356.906 251.297 357.75 238.078 Q 358.594 224.859 359.297 228.516 L 354.656 227.813 L 354.938 223.734 L 352.969 220.781 L 353.813 218.109 L 350.297 210.234 Z " fill="rgb(17,86,102)" fill-opacity="0.47" vector-effect="non-scaling-stroke" stroke-width="1" stroke="rgb(0,0,0)" stroke-linejoin="miter" stroke-linecap="square" stroke-miterlimit="3"/><path d=" M 351.75 208.781 L 346.125 201.375 L 370.031 193.031 L 372.281 201.469" fill="rgb(17,86,102)" fill-opacity="0.47" vector-effect="non-scaling-stroke" stroke-width="1" stroke="rgb(0,0,0)" stroke-linejoin="miter" stroke-linecap="square" stroke-miterlimit="3"/><path d=" M 203 162.803 L 202.125 134.51 L 201.375 133.806 L 200.625 107.625 Q 192.25 111.707 192.5 118.182 Q 192.75 124.657 193.375 134.37 Q 195.625 136.481 196.25 135.214 Q 196.875 133.947 197.125 136.762 Q 195.5 136.199 195.25 139.718 Q 195 143.237 195.625 160.692 Q 202.875 164.774 203 162.803 Z " fill="rgb(227,227,227)" vector-effect="non-scaling-stroke" stroke-width="0.3" stroke="rgb(0,0,0)" stroke-linejoin="miter" stroke-linecap="square" stroke-miterlimit="3"/><path d=" M 196.125 187.5 L 196.375 192.375 Q 196.875 196.5 199.375 195.5 Q 201.875 194.5 203.5 187.625" fill="rgb(227,227,227)" vector-effect="non-scaling-stroke" stroke-width="0.3" stroke="rgb(0,0,0)" stroke-linejoin="miter" stroke-linecap="square" stroke-miterlimit="3"/><line x1="197.25" y1="136.75" x2="201.75" y2="134" vector-effect="non-scaling-stroke" stroke-width="0.3" stroke="rgb(0,0,0)" stroke-linejoin="miter" stroke-linecap="square" stroke-miterlimit="3"/><path d=" M 236.063 187.125 Q 232.969 174.938 231.75 174.469 C 230.531 174 226.219 161.813 223.5 162.656 C 220.781 163.5 215.719 165.281 216.281 166.313 C 216.844 167.344 211.969 157.969 210.656 158.813 C 209.344 159.656 208.406 157.594 208.219 158.719 C 208.031 159.844 205.125 169.219 193.313 158.25 L 193.5 158.25 Q 189.563 155.906 185.344 164.625 Q 186.75 166.969 188.156 168.844 C 189.563 170.719 188.156 166.219 185.344 171.094 Q 182.531 175.969 188.156 177.469 L 186.75 179.063 Q 186.188 181.125 187.969 183.375 Q 189.75 185.625 188.813 185.719 Q 185.719 185.906 186.375 187.031 C 187.031 188.156 189.094 190.594 190.125 190.125 C 191.156 189.656 188.344 188.813 197.156 187.125 C 205.969 185.438 206.719 190.594 209.344 189.563 C 211.969 188.531 210.656 193.313 212.531 200.156 C 214.406 207 230.352 204.984 230.906 203.25 Q 236.109 186.961 236.063 187.125 Z " fill="rgb(17,86,102)" fill-opacity="0.38" vector-effect="non-scaling-stroke" stroke-width="1" stroke="rgb(0,0,0)" stroke-linejoin="miter" stroke-linecap="square" stroke-miterlimit="3"/><path d=" M 355.5 137.391 Q 361.547 148.078 357.188 150.609 Q 373.219 149.766 370.266 153.563 C 367.313 157.359 363.375 165.094 368.156 163.969 C 372.938 162.844 375.75 171.141 373.359 171.563 C 370.969 171.984 370.828 183.516 374.203 181.547 C 377.578 179.578 379.828 188.156 377.016 188.578 Q 374.203 189 369 193.641 L 346.5 201.656 Q 338.203 200.672 340.172 197.297 C 342.141 193.922 342.844 191.391 340.594 193.078 C 338.344 194.766 331.453 194.625 334.266 190.688 C 337.078 186.75 337.5 184.922 334.547 187.875 C 331.594 190.828 327.375 162.703 331.172 157.641 Q 334.969 152.578 331.313 152.156 L 328.781 167.625 L 324.281 166.641" fill="rgb(17,86,102)" fill-opacity="0.69" vector-effect="non-scaling-stroke" stroke-width="1" stroke="rgb(0,0,0)" stroke-linejoin="miter" stroke-linecap="square" stroke-miterlimit="3"/></g><defs><image width="794" height="1123" xlink:href="file://C:\Users\ekahyaoglu\Desktop\knightready2.svg" id="img_N9RSkoeXxym3oKjxpeBfvnwDoIJmqGcn"/></defs></svg>