<?xml version="1.0" encoding="UTF-8" standalone="no"?><!-- Generator: Gravit.io --><svg xmlns="http://www.w3.org/2000/svg" xmlns:xlink="http://www.w3.org/1999/xlink" style="isolation:isolate" viewBox="0 0 1536 1080" width="1536pt" height="1080pt"><defs><clipPath id="_clipPath_Rgg1Vp74N1UWkZsNE3YyRdfC8doAqUZz"><rect width="1536" height="1080"/></clipPath></defs><g clip-path="url(#_clipPath_Rgg1Vp74N1UWkZsNE3YyRdfC8doAqUZz)"><g style="isolation:isolate"/><path d=" M 544 107 C 543.88 114.3 545 121.458 545 129 C 541.646 139.063 535.755 141.83 528 147 C 521.131 151.579 511.085 150.249 506 155.333 C 501.461 159.872 488.612 169.667 484.667 169.667 C 475.459 169.667 481.333 156.005 481.333 151 C 481.333 144.215 488.127 133.31 491 129 C 496.024 121.465 507.94 116.51 514.667 112.667 C 524.1 107.276 531.179 106 539.333 106 C 541.49 106 545.667 105.927 544 107 Z " fill="rgb(0,0,0)" vector-effect="non-scaling-stroke" stroke-width="1" stroke="rgb(0,0,0)" stroke-linejoin="miter" stroke-linecap="square" stroke-miterlimit="3"/><path d=" M 550 106 C 550.391 113.593 548.667 121.299 548.667 129 C 549.484 131.451 568.103 140.218 570.333 141.333 C 578.899 145.616 584.207 155.822 590.667 160.667 C 595.032 163.94 600.69 179.077 603.667 178.333 C 612.132 176.217 617.026 187.427 611.667 191 C 608.081 193.391 602.403 191.195 601 194 C 599.523 196.955 600.384 201.182 599.333 204.333 C 597.211 210.699 589.667 222.725 589.667 227.667 C 589.667 235.662 583.178 243.733 579.667 249 C 575.008 255.988 560.248 262.589 558.333 268.333 C 554.065 281.138 561.252 279.252 566.333 284.333 C 573.738 291.738 583.06 297.924 587.333 304.333 C 593.657 313.818 597.667 319.092 597.667 329 C 597.667 336.44 607.766 356.936 611 344 C 613.264 334.944 612.063 328.083 614 320.333 C 616.053 312.122 624 299.985 624 294 C 624 284.51 619.689 278.776 618 270.333 C 616.073 260.696 612.667 252.189 612.667 244 C 612.667 240.808 612.658 230.897 616.667 234.333 C 618.678 236.057 620.017 240.717 618 234.667 C 617.595 233.451 616 231.311 616 230 C 616 220.111 620.333 212.744 620.333 204.667 C 620.333 190.524 623.685 178.408 620.333 165 C 617.825 154.965 614.317 144.417 609.667 136.667 C 602.755 125.147 597.925 119.395 588.333 113 C 579.714 107.254 569.961 104.574 561 102.333 C 553.445 100.445 554.456 106 550 106 Z " fill="rgb(0,0,0)" vector-effect="non-scaling-stroke" stroke-width="1" stroke="rgb(0,0,0)" stroke-linejoin="miter" stroke-linecap="square" stroke-miterlimit="3"/><clipPath id="_clipPath_oknNAVZCw65uPvEJkHBvhypLOXxtwwJw"><path d=" M 550 106 C 550.391 113.593 548.667 121.299 548.667 129 C 549.484 131.451 568.103 140.218 570.333 141.333 C 578.899 145.616 584.207 155.822 590.667 160.667 C 595.032 163.94 600.69 179.077 603.667 178.333 C 612.132 176.217 617.026 187.427 611.667 191 C 608.081 193.391 602.403 191.195 601 194 C 599.523 196.955 600.384 201.182 599.333 204.333 C 597.211 210.699 589.667 222.725 589.667 227.667 C 589.667 235.662 583.178 243.733 579.667 249 C 575.008 255.988 560.248 262.589 558.333 268.333 C 554.065 281.138 561.252 279.252 566.333 284.333 C 573.738 291.738 583.06 297.924 587.333 304.333 C 593.657 313.818 597.667 319.092 597.667 329 C 597.667 336.44 607.766 356.936 611 344 C 613.264 334.944 612.063 328.083 614 320.333 C 616.053 312.122 624 299.985 624 294 C 624 284.51 619.689 278.776 618 270.333 C 616.073 260.696 612.667 252.189 612.667 244 C 612.667 240.808 612.658 230.897 616.667 234.333 C 618.678 236.057 620.017 240.717 618 234.667 C 617.595 233.451 616 231.311 616 230 C 616 220.111 620.333 212.744 620.333 204.667 C 620.333 190.524 623.685 178.408 620.333 165 C 617.825 154.965 614.317 144.417 609.667 136.667 C 602.755 125.147 597.925 119.395 588.333 113 C 579.714 107.254 569.961 104.574 561 102.333 C 553.445 100.445 554.456 106 550 106 Z " fill="rgb(0,0,0)" vector-effect="non-scaling-stroke" stroke-width="1" stroke="rgb(0,0,0)" stroke-linejoin="miter" stroke-linecap="square" stroke-miterlimit="3"/></clipPath><g clip-path="url(#_clipPath_oknNAVZCw65uPvEJkHBvhypLOXxtwwJw)"/><path d=" M 550 106 C 550.391 113.593 548.667 121.299 548.667 129 C 549.484 131.451 568.103 140.218 570.333 141.333 C 578.899 145.616 584.207 155.822 590.667 160.667 C 595.032 163.94 600.69 179.077 603.667 178.333 C 612.132 176.217 617.026 187.427 611.667 191 C 608.081 193.391 602.403 191.195 601 194 C 599.523 196.955 600.384 201.182 599.333 204.333 C 597.211 210.699 589.667 222.725 589.667 227.667 C 589.667 235.662 583.178 243.733 579.667 249 C 575.008 255.988 560.248 262.589 558.333 268.333 C 554.065 281.138 561.252 279.252 566.333 284.333 C 573.738 291.738 583.06 297.924 587.333 304.333 C 593.657 313.818 597.667 319.092 597.667 329 C 597.667 336.44 607.766 356.936 611 344 C 613.264 334.944 612.063 328.083 614 320.333 C 616.053 312.122 624 299.985 624 294 C 624 284.51 619.689 278.776 618 270.333 C 616.073 260.696 612.667 252.189 612.667 244 C 612.667 240.808 612.658 230.897 616.667 234.333 C 618.678 236.057 620.017 240.717 618 234.667 C 617.595 233.451 616 231.311 616 230 C 616 220.111 620.333 212.744 620.333 204.667 C 620.333 190.524 623.685 178.408 620.333 165 C 617.825 154.965 614.317 144.417 609.667 136.667 C 602.755 125.147 597.925 119.395 588.333 113 C 579.714 107.254 569.961 104.574 561 102.333 C 553.445 100.445 554.456 106 550 106 Z " fill="transparent" vector-effect="non-scaling-stroke" stroke-width="1" stroke="rgb(0,0,0)" stroke-linejoin="miter" stroke-linecap="square" stroke-miterlimit="3"/><path d=" M 479 184 C 484.566 188.74 486.262 187.68 488.333 197 C 490.206 204.492 494.667 213.758 494.667 220 C 494.667 229.297 499.908 238.195 504 244.333 C 509.432 252.482 518.687 256.697 523.333 263.667 C 529.587 273.048 522.093 278.938 515 283.667 C 506.503 289.331 498.65 292.762 491.667 298 C 484.328 303.504 487.681 296.039 485.667 290.667 C 484.54 287.661 483.667 284.548 483.667 281.333 C 483.667 277.878 478.521 273.386 477.333 272 C 472.981 266.923 474.158 260.033 475.667 254 C 478.297 243.48 481.333 235.033 481.333 225.667 C 481.333 209.86 470.966 229.77 476 214.667 C 477.151 211.214 482.436 195.29 480 193.667 C 475.557 190.705 474.202 177.536 479 184 Z " fill="rgb(0,0,0)" vector-effect="non-scaling-stroke" stroke-width="1" stroke="rgb(0,0,0)" stroke-linejoin="miter" stroke-linecap="square" stroke-miterlimit="3"/><path d=" M 564 155.333 C 569.745 157.126 577.167 162.584 584 166 C 591.115 167.779 583.177 163.51 579.333 159.667 C 577.796 158.129 576.099 154.033 574 153.333 C 567.202 151.067 565.333 148.804 565.333 156.667 C 565.333 157.018 565.351 157.667 564 155.333 Z " fill="rgb(0,0,0)" vector-effect="non-scaling-stroke" stroke-width="1" stroke="rgb(0,0,0)" stroke-linejoin="miter" stroke-linecap="square" stroke-miterlimit="3"/><path d=" M 502 165 C 505.218 157.514 515.492 156.667 523 156.667 C 528.884 156.667 526.03 146.459 516.333 152 C 515.985 152.199 515.681 152.468 515.333 152.667 C 514.902 152.913 514.413 153.058 514 153.333 C 508.728 156.848 507.05 160.283 502 165 Z " fill="rgb(0,0,0)" vector-effect="non-scaling-stroke" stroke-width="1" stroke="rgb(0,0,0)" stroke-linejoin="miter" stroke-linecap="square" stroke-miterlimit="3"/><path d=" M 519 175 C 508.993 172.174 506.349 186.667 519 186.667 C 530.72 183.737 521.622 169.378 519 175 Z " fill="rgb(255,255,255)" vector-effect="non-scaling-stroke" stroke-width="1" stroke="rgb(0,0,0)" stroke-linejoin="miter" stroke-linecap="square" stroke-miterlimit="3"/><path d=" M 568 178.333 C 558.706 174.734 556.774 193.307 571.333 189.667 C 576.75 186.958 578.156 183.273 575 179.667 C 574.642 179.257 566.667 173.643 568 178.333 Z " fill="rgb(255,255,255)" vector-effect="non-scaling-stroke" stroke-width="1" stroke="rgb(0,0,0)" stroke-linejoin="miter" stroke-linecap="square" stroke-miterlimit="3"/><path d=" M 539.333 204.333 C 538.066 203.573 543.214 209.241 547.333 206.667 C 551.128 204.295 551.413 199.73 546.333 201 C 543.683 201.53 537.171 202.659 539.333 204.333 Z " fill="rgb(255,255,255)" vector-effect="non-scaling-stroke" stroke-width="1" stroke="rgb(0,0,0)" stroke-linejoin="miter" stroke-linecap="square" stroke-miterlimit="3"/><path d=" M 534 230 C 541.387 227.482 556.144 235.621 551 225.333 C 546.839 219.092 535.855 228.797 534 230 Z " fill="rgb(255,255,255)" vector-effect="non-scaling-stroke" stroke-width="1" stroke="rgb(0,0,0)" stroke-linejoin="miter" stroke-linecap="square" stroke-miterlimit="3"/><path d=" M 544.505 130.375 C 544.289 139.075 537.577 145.108 529.88 147.625 C 519.411 147.625 509.679 154.804 502.88 159.25 C 495.45 164.107 487.578 172.177 479.328 172.177 C 475.26 172.177 471.991 178.981 474.229 181.177 C 476.496 183.4 482.08 182.393 483.746 184.844 C 487.698 190.658 490.13 199.743 490.13 206.125 C 490.13 215.994 495.132 224.798 497.255 233.125 C 498.979 239.889 507.122 254.35 511.955 257.51 C 515.603 259.895 519.907 263.125 523.13 263.125 C 529.359 263.125 532.101 266.679 537.38 268.75 C 547.146 272.581 557.577 259 566.255 259 C 573.25 259 582.687 245.59 584.63 239.875 C 587.06 232.725 589.958 221.008 594.883 216.177 C 597.685 213.429 597.856 209.307 599.255 207.25 C 601.068 204.581 601.034 193.759 604.13 193 C 614.375 190.488 615.847 181.96 604.88 178.375 C 595.487 175.304 599.952 168.826 593.63 162.625 C 586.552 155.684 577.624 145.486 569.255 142.75 C 560.736 139.965 558.374 131.875 550.505 131.875 C 549.485 131.875 544.165 131.375 544.505 130.375 Z " fill="rgb(255,255,255)" fill-opacity="0.38" vector-effect="non-scaling-stroke" stroke-width="3" stroke="rgb(0,0,0)" stroke-linejoin="miter" stroke-linecap="square" stroke-miterlimit="3"/><path d=" M 577 252 C 570.662 254.601 561.603 262.392 558.667 269 C 557.292 273.125 559.667 276.279 559.667 279.333 C 559.667 284.526 555.408 283.172 551.667 285.667 C 547.51 288.438 525.497 294.491 524 290 C 520.292 278.875 520.722 279.889 525.333 270.667 C 526.185 268.964 526 270.422 526 268.667 C 526 268.222 526 267.778 526 267.333 C 526 264.886 518.029 255.859 516.667 254.667" fill="none" vector-effect="non-scaling-stroke" stroke-width="1" stroke="rgb(0,0,0)" stroke-linejoin="miter" stroke-linecap="square" stroke-miterlimit="3"/><path d=" M 559.662 279.278 C 567.008 285.573 577.241 290.452 583.328 298.278 C 591.982 309.095 595.091 318.017 599.328 328.612 C 605.051 342.918 595.534 338.957 589.328 343.612 C 582.62 348.643 578.328 339.319 578.328 349.278 C 578.328 351.921 579.995 354.05 579.995 356.945 C 579.995 367.864 575.995 377.382 575.995 386.945 C 575.995 396.526 574.995 404.641 574.995 412.612 C 574.995 423.236 576.662 432.628 576.662 441.278 C 576.662 445.624 578.411 448.689 578.995 451.612 C 580.68 460.038 578.593 456.968 571.662 459.278 C 563.545 461.984 549.865 464.945 542.662 464.945 C 529.214 464.945 517.868 466.612 506.662 466.612 C 496.128 466.612 498.328 467.787 498.328 459.278 C 498.328 456.389 498.328 453.5 498.328 450.612 C 498.328 434.451 498.173 419.701 500.328 404.612 C 502.158 391.804 502.739 379.663 500.662 369.278 C 497.785 354.893 495.06 355.811 485.328 350.945 C 478.133 347.347 470.033 345.164 473.328 335.278 C 476.328 326.279 472.677 318.582 476.662 310.612 C 480.976 301.984 489.936 293.392 496.328 288.278 C 506.247 280.343 512.359 278 521.662 274.278 L 523.328 273.612 L 524.995 273.278" fill="rgb(17,86,102)" vector-effect="non-scaling-stroke" stroke-width="1" stroke="rgb(0,0,0)" stroke-linejoin="miter" stroke-linecap="square" stroke-miterlimit="3"/><path d=" M 543 107.5 C 542.65 106.8 552.631 107.807 553.5 108" fill="none" vector-effect="non-scaling-stroke" stroke-width="1" stroke="rgb(0,0,0)" stroke-linejoin="miter" stroke-linecap="square" stroke-miterlimit="3"/><path d=" M 480.5 179 C 480.5 179 476 187 476 187 C 476.266 187.665 477.791 191.256 479.5 191.5 C 485.126 192.304 486.224 174.517 480.5 179 Z " fill="rgb(250,254,255)" vector-effect="non-scaling-stroke" stroke-width="1" stroke="rgb(0,0,0)" stroke-linejoin="miter" stroke-linecap="square" stroke-miterlimit="3"/><path d=" M 603.5 186 C 603.5 185.751 604.433 206.09 610.5 198 C 616.141 190.479 603.987 184.671 603.5 186 Z " fill="rgb(244,243,228)" vector-effect="non-scaling-stroke" stroke-width="1" stroke="rgb(0,0,0)" stroke-linejoin="miter" stroke-linecap="square" stroke-miterlimit="3"/><path d=" M 477.643 344.012 C 477.643 344.012 472.487 362.857 472.487 362.857 C 472.423 366.396 472.571 375.71 473.51 378.148 C 472.902 381.555 473.158 390.36 474.042 391.802 C 473.564 403.808 474.895 416.458 474.666 425.844" fill="rgb(255,255,255)" vector-effect="non-scaling-stroke" stroke-width="1" stroke="rgb(0,0,0)" stroke-linejoin="miter" stroke-linecap="square" stroke-miterlimit="3"/><path d=" M 474.375 418.5 C 474.813 422.554 474.749 426.674 474.563 431.063 C 474.119 441.531 472.803 452.681 474.667 462" fill="none" vector-effect="non-scaling-stroke" stroke-width="1" stroke="rgb(0,0,0)" stroke-linejoin="miter" stroke-linecap="square" stroke-miterlimit="3"/><path d=" M 492.563 354 C 493.671 356.847 491.625 380.139 491.625 389.438 C 491.625 402.309 487.5 412.38 487.5 423.375 C 487.5 432.315 486.563 445.125 486.938 452.813 C 489.329 457.596 486.372 464.154 487.333 468" fill="none" vector-effect="non-scaling-stroke" stroke-width="1" stroke="rgb(0,0,0)" stroke-linejoin="miter" stroke-linecap="square" stroke-miterlimit="3"/><path d=" M 473.328 459.278 C 473.328 459.278 472.667 468.667 472.667 468.667 C 472.667 475.998 469.333 483.407 469.333 491.333 C 469.333 512.352 474 493.829 474 484.667 C 474 483.333 478.667 504.667 478.667 504.667 C 482.271 507.07 481.333 495.222 481.333 494 C 481.333 478.783 479.209 508.05 486 505.333 C 490.18 503.661 486 492.735 486 490 C 486 488.667 490 502 490 502 C 493.534 504.356 492.667 494.217 492.667 493.333 C 492.667 482.214 489.043 494.376 491.333 496.667 C 497.38 502.713 491.601 476.535 489.333 472 C 486.85 467.034 487.333 463.351 487.333 459.333" fill="rgb(126,172,183)" vector-effect="non-scaling-stroke" stroke-width="1" stroke="rgb(0,0,0)" stroke-linejoin="miter" stroke-linecap="square" stroke-miterlimit="3"/><path d=" M 584 344 C 584 344 583.313 353.063 583.313 353.063 C 582.203 361.392 583.259 370.37 586.688 374.063 C 587.063 386.625 591.938 397.185 591.938 406.688 C 591.938 419.975 598.667 432.771 598.667 444.667 C 598.667 446 602.813 458.25 602.813 458.25" fill="none" vector-effect="non-scaling-stroke" stroke-width="1" stroke="rgb(0,0,0)" stroke-linejoin="miter" stroke-linecap="square" stroke-miterlimit="3"/><path d=" M 599.75 336.625 C 599.75 336.625 605 348.5 605 348.5 C 607.496 354.741 603.694 361.777 605.375 368.5 C 605.375 380.455 608.938 389.562 608.938 400 C 611.188 409.563 610.75 426.313 611.5 434" fill="rgb(255,255,255)" vector-effect="non-scaling-stroke" stroke-width="1" stroke="rgb(0,0,0)" stroke-linejoin="miter" stroke-linecap="square" stroke-miterlimit="3"/><path d=" M 611 432.5 C 611 432.5 611.5 455 611.5 455 C 614.394 460.788 607.721 460.555 603.5 459.5 C 602.638 459.285 601.723 457 601.5 457 C 601.5 457 603 460 603 460 C 603.504 458.993 602.259 456 601.5 456" fill="none" vector-effect="non-scaling-stroke" stroke-width="1" stroke="rgb(0,0,0)" stroke-linejoin="miter" stroke-linecap="square" stroke-miterlimit="3"/><path d=" M 500.333 466.667 C 502.694 485.051 503.333 503.429 503.333 522 C 503.333 534.213 501.333 543.67 501.333 554.667 C 501.333 567.111 501.333 577.556 501.333 588 C 501.333 599.984 496.407 609.481 501.333 619.333 C 503.013 622.692 504.667 627.748 504.667 630 C 504.667 634.803 500.478 635.059 501.333 639.333 C 501.798 641.655 503.333 643.649 503.333 646 C 503.333 657.855 506.215 670.904 501.333 680.667 C 495.129 693.076 490.745 704.509 485.333 715.333 C 478.453 729.095 498.903 734.882 507.333 730.667 C 514.391 727.138 526.186 726 532.667 726 C 532.667 726 541.333 727.333 541.333 727.333 C 541.333 713.173 533.456 702.184 526.667 692 C 518.641 679.961 522.667 664.401 522.667 653.333 C 522.667 640.562 520.667 630.872 520.667 620.667 C 520.667 613.792 526.667 611.664 526.667 606 C 526.667 602.777 526.212 599.181 526.667 596 C 526.999 593.672 528.283 589.434 529.333 587.333 C 535.919 574.162 526 565.816 526 555.333 C 526 544.664 525.333 534.902 525.333 525.333 C 525.333 514.726 521.333 506.522 521.333 497.333 C 521.333 485.458 539.393 491.97 546 488.667 C 549.082 487.126 554.514 486.538 556.667 486 C 558.922 485.436 564.221 493.779 562.667 495.333" fill="rgb(0,0,0)" vector-effect="non-scaling-stroke" stroke-width="1" stroke="rgb(0,0,0)" stroke-linejoin="miter" stroke-linecap="square" stroke-miterlimit="3"/><path d=" M 500.667 466.667 C 500.667 466.667 522.667 464.667 522.667 464.667 C 525.475 463.864 528.421 463.333 531.333 463.333 C 545.327 463.333 555.639 462.787 568 458.667 C 585.468 452.844 578.535 461.071 583.333 470.667 C 586.622 477.245 590 496.966 590 502.667 C 590 511.023 588.223 526.446 591.333 532.667 C 596.269 542.539 591.676 556.018 596 564.667 C 600.819 574.306 598.993 586.313 602 595.333 C 604.566 603.032 606 608.503 606 614.667 C 606 616.643 599.444 622.389 601.333 623.333 C 606.232 625.783 608 626.145 608 632 C 608 636.492 600.522 639.044 602 642 C 605.924 649.848 607.333 665.962 607.333 673.333 C 607.333 682.374 620.009 694 628.667 694 C 631.28 694 642.658 703.327 645.333 705.333 C 647.642 707.065 651.903 706.667 654.667 706.667 C 665.104 706.667 680.621 707.977 688.667 712 C 703.586 719.46 676.286 726.667 671.333 726.667 C 657.317 726.667 644.508 727.058 633.333 723.333 C 623.558 720.075 607.798 704.059 614.667 724.667 C 618.025 734.74 592.576 732.667 586 732.667 C 575.927 732.667 580.667 710.974 580.667 704.667 C 580.667 692.327 588.899 681.364 585.333 670.667 C 581.241 658.389 582 644.927 582 634 C 582 629.579 581.333 627.058 581.333 624 C 581.333 618.618 584.634 619.235 580.667 607.333 C 576.696 595.42 580 578.447 580 568 C 580 556.569 577.333 546.487 577.333 536.667 C 577.333 525.616 570 515.781 570 505.333 C 570 501.84 567.234 497.727 566 496 C 560.636 488.491 555.534 476.136 553.333 467.333" fill="rgb(0,0,0)" vector-effect="non-scaling-stroke" stroke-width="1" stroke="rgb(0,0,0)" stroke-linejoin="miter" stroke-linecap="square" stroke-miterlimit="3"/><path d=" M 507.333 465 C 507.333 465 499.333 474 499.333 474 C 502.165 479.662 522.239 478.786 527.333 481.333 C 533.374 484.353 536.538 485.204 539.333 488 C 547.664 496.331 552.902 494.667 564 494.667 C 573.841 494.667 575.099 486.36 574 478.667 C 572.898 470.955 566.893 472.151 562.667 469.333 C 556.818 465.434 551.579 464.147 548 462" fill="rgb(0,0,0)" vector-effect="non-scaling-stroke" stroke-width="1" stroke="rgb(0,0,0)" stroke-linejoin="miter" stroke-linecap="square" stroke-miterlimit="3"/><path d=" M 602 455 C 602 455 599.5 477 599.5 477 C 595.343 485.314 604 497.748 604 487 C 604 475.023 605.159 476.318 609 484 C 613.156 492.311 613 476.269 613 473.5 C 613 468.128 620 492.982 620 481.5 C 620 474.072 613.508 461.754 616 463 C 617.818 463.909 627.5 485.195 627.5 469.5 C 627.5 461.218 618.964 459 613 459 L 612 459 L 611 459" fill="rgb(118,158,168)" vector-effect="non-scaling-stroke" stroke-width="1" stroke="rgb(0,0,0)" stroke-linejoin="miter" stroke-linecap="square" stroke-miterlimit="3"/><line x1="599" y1="451" x2="611" y2="453" vector-effect="non-scaling-stroke" stroke-width="1" stroke="rgb(0,0,0)" stroke-linejoin="miter" stroke-linecap="square" stroke-miterlimit="3"/></g></svg>