<?xml version="1.0" encoding="UTF-8" standalone="no"?><!-- Generator: Gravit.io --><svg xmlns="http://www.w3.org/2000/svg" xmlns:xlink="http://www.w3.org/1999/xlink" style="isolation:isolate" viewBox="0 0 1536 1080" width="1536pt" height="1080pt"><defs><clipPath id="_clipPath_yjaby6WmPnah1nev9OCKCdMO6e9hA40p"><rect width="1536" height="1080"/></clipPath></defs><g clip-path="url(#_clipPath_yjaby6WmPnah1nev9OCKCdMO6e9hA40p)"><g style="isolation:isolate"/><path d=" M 544 107 C 543.88 114.3 545 121.458 545 129 C 541.646 139.063 535.755 141.83 528 147 C 521.131 151.579 511.085 150.249 506 155.333 C 501.461 159.872 488.612 169.667 484.667 169.667 C 475.459 169.667 481.333 156.005 481.333 151 C 481.333 144.215 488.127 133.31 491 129 C 496.024 121.465 507.94 116.51 514.667 112.667 C 524.1 107.276 531.179 106 539.333 106 C 541.49 106 545.667 105.927 544 107 Z " fill="rgb(0,0,0)" vector-effect="non-scaling-stroke" stroke-width="1" stroke="rgb(0,0,0)" stroke-linejoin="miter" stroke-linecap="square" stroke-miterlimit="3"/><path d=" M 547.5 107.915 C 547.891 115.508 546.167 123.214 546.167 130.915 C 546.984 133.366 565.603 142.133 567.833 143.248 C 576.399 147.531 581.707 157.736 588.167 162.581 C 592.532 165.855 598.19 180.992 601.167 180.248 C 609.632 178.132 614.526 189.342 609.167 192.915 C 605.581 195.305 599.903 193.11 598.5 195.915 C 597.023 198.87 597.884 203.097 596.833 206.248 C 594.711 212.614 587.167 224.64 587.167 229.581 C 587.167 237.577 580.678 245.648 577.167 250.915 C 572.508 257.903 557.748 264.504 555.833 270.248 C 551.565 283.053 558.752 281.167 563.833 286.248 C 571.238 293.653 580.56 299.838 584.833 306.248 C 591.157 315.733 595.167 321.007 595.167 330.915 C 595.167 338.354 605.266 358.85 608.5 345.915 C 610.764 336.859 609.563 329.997 611.5 322.248 C 613.553 314.037 621.5 301.9 621.5 295.915 C 621.5 286.425 617.189 280.691 615.5 272.248 C 613.573 262.611 610.167 254.104 610.167 245.915 C 610.167 242.723 610.158 232.812 614.167 236.248 C 616.178 237.972 617.517 242.631 615.5 236.581 C 615.095 235.366 613.5 233.225 613.5 231.915 C 613.5 222.026 617.833 214.658 617.833 206.581 C 617.833 192.439 621.185 180.323 617.833 166.915 C 615.325 156.88 611.817 146.332 607.167 138.581 C 600.255 127.062 595.425 121.309 585.833 114.915 C 577.214 109.169 567.461 106.488 558.5 104.248 C 550.945 102.359 551.956 107.915 547.5 107.915 Z " fill="rgb(0,0,0)" vector-effect="non-scaling-stroke" stroke-width="1" stroke="rgb(0,0,0)" stroke-linejoin="miter" stroke-linecap="square" stroke-miterlimit="3"/><clipPath id="_clipPath_SyZlOU279rAZ5YUUAyWHdUCPVUvEKLfC"><path d=" M 547.5 107.915 C 547.891 115.508 546.167 123.214 546.167 130.915 C 546.984 133.366 565.603 142.133 567.833 143.248 C 576.399 147.531 581.707 157.736 588.167 162.581 C 592.532 165.855 598.19 180.992 601.167 180.248 C 609.632 178.132 614.526 189.342 609.167 192.915 C 605.581 195.305 599.903 193.11 598.5 195.915 C 597.023 198.87 597.884 203.097 596.833 206.248 C 594.711 212.614 587.167 224.64 587.167 229.581 C 587.167 237.577 580.678 245.648 577.167 250.915 C 572.508 257.903 557.748 264.504 555.833 270.248 C 551.565 283.053 558.752 281.167 563.833 286.248 C 571.238 293.653 580.56 299.838 584.833 306.248 C 591.157 315.733 595.167 321.007 595.167 330.915 C 595.167 338.354 605.266 358.85 608.5 345.915 C 610.764 336.859 609.563 329.997 611.5 322.248 C 613.553 314.037 621.5 301.9 621.5 295.915 C 621.5 286.425 617.189 280.691 615.5 272.248 C 613.573 262.611 610.167 254.104 610.167 245.915 C 610.167 242.723 610.158 232.812 614.167 236.248 C 616.178 237.972 617.517 242.631 615.5 236.581 C 615.095 235.366 613.5 233.225 613.5 231.915 C 613.5 222.026 617.833 214.658 617.833 206.581 C 617.833 192.439 621.185 180.323 617.833 166.915 C 615.325 156.88 611.817 146.332 607.167 138.581 C 600.255 127.062 595.425 121.309 585.833 114.915 C 577.214 109.169 567.461 106.488 558.5 104.248 C 550.945 102.359 551.956 107.915 547.5 107.915 Z " fill="rgb(0,0,0)" vector-effect="non-scaling-stroke" stroke-width="1" stroke="rgb(0,0,0)" stroke-linejoin="miter" stroke-linecap="square" stroke-miterlimit="3"/></clipPath><g clip-path="url(#_clipPath_SyZlOU279rAZ5YUUAyWHdUCPVUvEKLfC)"/><path d=" M 547.5 107.915 C 547.891 115.508 546.167 123.214 546.167 130.915 C 546.984 133.366 565.603 142.133 567.833 143.248 C 576.399 147.531 581.707 157.736 588.167 162.581 C 592.532 165.855 598.19 180.992 601.167 180.248 C 609.632 178.132 614.526 189.342 609.167 192.915 C 605.581 195.305 599.903 193.11 598.5 195.915 C 597.023 198.87 597.884 203.097 596.833 206.248 C 594.711 212.614 587.167 224.64 587.167 229.581 C 587.167 237.577 580.678 245.648 577.167 250.915 C 572.508 257.903 557.748 264.504 555.833 270.248 C 551.565 283.053 558.752 281.167 563.833 286.248 C 571.238 293.653 580.56 299.838 584.833 306.248 C 591.157 315.733 595.167 321.007 595.167 330.915 C 595.167 338.354 605.266 358.85 608.5 345.915 C 610.764 336.859 609.563 329.997 611.5 322.248 C 613.553 314.037 621.5 301.9 621.5 295.915 C 621.5 286.425 617.189 280.691 615.5 272.248 C 613.573 262.611 610.167 254.104 610.167 245.915 C 610.167 242.723 610.158 232.812 614.167 236.248 C 616.178 237.972 617.517 242.631 615.5 236.581 C 615.095 235.366 613.5 233.225 613.5 231.915 C 613.5 222.026 617.833 214.658 617.833 206.581 C 617.833 192.439 621.185 180.323 617.833 166.915 C 615.325 156.88 611.817 146.332 607.167 138.581 C 600.255 127.062 595.425 121.309 585.833 114.915 C 577.214 109.169 567.461 106.488 558.5 104.248 C 550.945 102.359 551.956 107.915 547.5 107.915 Z " fill="transparent" vector-effect="non-scaling-stroke" stroke-width="1" stroke="rgb(0,0,0)" stroke-linejoin="miter" stroke-linecap="square" stroke-miterlimit="3"/><path d=" M 479.599 181.981 C 485.54 186.803 487.351 185.726 489.562 195.207 C 491.561 202.83 496.322 212.257 496.322 218.608 C 496.322 228.067 501.917 237.12 506.285 243.365 C 512.084 251.656 521.963 255.944 526.923 263.035 C 533.599 272.58 525.599 278.572 518.027 283.383 C 508.957 289.147 500.575 292.637 493.12 297.966 C 485.287 303.566 488.866 295.971 486.715 290.505 C 485.512 287.448 484.581 284.28 484.581 281.009 C 484.581 277.494 479.088 272.924 477.82 271.514 C 473.174 266.348 474.431 259.338 476.041 253.2 C 478.848 242.496 482.09 233.903 482.09 224.373 C 482.09 208.292 471.023 228.548 476.397 213.182 C 477.625 209.669 483.266 193.468 480.667 191.816 C 475.924 188.803 474.478 175.404 479.599 181.981 Z " fill="rgb(0,0,0)" vector-effect="non-scaling-stroke" stroke-width="1" stroke="rgb(0,0,0)" stroke-linejoin="miter" stroke-linecap="square" stroke-miterlimit="3"/><path d=" M 542.654 129.736 C 542.43 138.528 535.468 144.626 527.484 147.169 C 516.626 147.169 506.532 154.424 499.479 158.917 C 491.772 163.826 483.607 171.981 475.049 171.981 C 470.83 171.981 467.439 178.857 469.761 181.076 C 472.112 183.322 477.904 182.305 479.632 184.781 C 483.732 190.657 486.254 199.839 486.254 206.288 C 486.254 216.261 491.443 225.159 493.644 233.574 C 495.433 240.409 503.879 255.024 508.892 258.217 C 512.676 260.627 517.14 263.891 520.483 263.891 C 526.945 263.891 529.788 267.483 535.264 269.576 C 545.394 273.448 556.214 259.722 565.214 259.722 C 572.47 259.722 582.259 246.171 584.274 240.395 C 586.794 233.169 589.8 221.328 594.909 216.446 C 597.816 213.669 597.993 209.503 599.443 207.425 C 601.325 204.728 601.29 193.791 604.5 193.024 C 615.127 190.485 616.654 181.867 605.278 178.244 C 595.536 175.141 600.167 168.594 593.609 162.327 C 586.268 155.313 577.007 145.007 568.326 142.242 C 559.49 139.428 557.041 131.252 548.878 131.252 C 547.82 131.252 542.302 130.747 542.654 129.736 Z " fill="rgb(247,239,239)" vector-effect="non-scaling-stroke" stroke-width="3" stroke="rgb(0,0,0)" stroke-linejoin="miter" stroke-linecap="square" stroke-miterlimit="3"/><path d=" M 577 252 C 570.662 254.601 561.603 262.392 558.667 269 C 557.292 273.125 559.667 276.279 559.667 279.333 C 559.667 284.526 555.408 283.172 551.667 285.667 C 547.51 288.438 525.497 294.491 524 290 C 520.292 278.875 520.722 279.889 525.333 270.667 C 526.185 268.964 526 270.422 526 268.667 C 526 268.222 526 267.778 526 267.333 C 526 264.886 518.029 255.859 516.667 254.667" fill="rgb(247,239,239)" vector-effect="non-scaling-stroke" stroke-width="1" stroke="rgb(0,0,0)" stroke-linejoin="miter" stroke-linecap="square" stroke-miterlimit="3"/><path d=" M 502 172.75 C 505.218 165.264 515.492 164.417 523 164.417 C 528.884 164.417 526.03 154.209 516.333 159.75 C 515.985 159.949 515.681 160.218 515.333 160.417 C 514.902 160.663 514.413 160.808 514 161.083 C 508.728 164.598 507.05 168.033 502 172.75 Z " fill="rgb(0,0,0)" vector-effect="non-scaling-stroke" stroke-width="1" stroke="rgb(0,0,0)" stroke-linejoin="miter" stroke-linecap="square" stroke-miterlimit="3"/><path d=" M 565.25 161.833 C 570.995 163.626 578.417 169.084 585.25 172.5 C 592.365 174.279 584.427 170.01 580.583 166.167 C 579.046 164.629 577.349 160.533 575.25 159.833 C 568.452 157.567 566.583 155.304 566.583 163.167 C 566.583 163.518 566.601 164.167 565.25 161.833 Z " fill="rgb(0,0,0)" vector-effect="non-scaling-stroke" stroke-width="1" stroke="rgb(0,0,0)" stroke-linejoin="miter" stroke-linecap="square" stroke-miterlimit="3"/><path d=" M 583.875 345.398 C 587.446 355.598 585.691 366.783 586.71 377.521 C 586.71 389.681 591.316 400.993 591.316 412.259 C 591.316 422.414 595.567 430.289 595.567 438.779 C 595.567 452.698 612.652 442.97 611.157 441.394 C 606.699 436.694 608.474 419.777 607.26 413.38 C 605.43 403.733 608.171 392.729 605.843 385.365 C 602.324 374.237 604.425 360.442 604.425 349.88 C 604.425 345.529 604.457 342.499 603.362 339.422 C 603.008 338.425 596.63 327.104 596.63 331.951" fill="rgb(242,229,229)" vector-effect="non-scaling-stroke" stroke-width="1" stroke="rgb(0,0,0)" stroke-linejoin="miter" stroke-linecap="square" stroke-miterlimit="3"/><path d=" M 473.001 448.47 C 473.001 448.47 472.339 457.859 472.339 457.859 C 472.339 465.19 469.006 472.6 469.006 480.526 C 469.006 501.544 473.673 483.021 473.673 473.859 C 473.673 472.526 478.339 493.859 478.339 493.859 C 481.944 496.262 481.006 484.414 481.006 483.192 C 481.006 467.975 478.882 497.242 485.673 494.526 C 489.853 492.853 485.673 481.927 485.673 479.192 C 485.673 477.859 489.673 491.192 489.673 491.192 C 493.206 493.548 492.339 483.409 492.339 482.526 C 492.339 471.406 488.716 483.569 491.006 485.859 C 497.053 491.905 491.274 465.728 489.006 461.192 C 486.523 456.226 487.006 452.543 487.006 448.526" fill="rgb(17,86,102)" fill-opacity="0.64" vector-effect="non-scaling-stroke" stroke-width="1" stroke="rgb(0,0,0)" stroke-linejoin="miter" stroke-linecap="square" stroke-miterlimit="3"/><line x1="529.125" y1="242.063" x2="550.5" y2="244.875" vector-effect="non-scaling-stroke" stroke-width="1" stroke="rgb(0,0,0)" stroke-linejoin="miter" stroke-linecap="square" stroke-miterlimit="3"/><path d=" M 500.333 466.667 C 502.694 485.051 503.333 503.429 503.333 522 C 503.333 534.213 501.333 543.67 501.333 554.667 C 501.333 567.111 501.333 577.556 501.333 588 C 501.333 599.984 496.407 609.481 501.333 619.333 C 503.013 622.692 504.667 627.748 504.667 630 C 504.667 634.803 500.478 635.059 501.333 639.333 C 501.798 641.655 503.333 643.649 503.333 646 C 503.333 657.855 506.215 670.904 501.333 680.667 C 495.129 693.076 490.745 704.509 485.333 715.333 C 478.453 729.095 498.903 734.882 507.333 730.667 C 514.391 727.138 526.186 726 532.667 726 C 532.667 726 541.333 727.333 541.333 727.333 C 541.333 713.173 533.456 702.184 526.667 692 C 518.641 679.961 522.667 664.401 522.667 653.333 C 522.667 640.562 520.667 630.872 520.667 620.667 C 520.667 613.792 526.667 611.664 526.667 606 C 526.667 602.777 526.212 599.181 526.667 596 C 526.999 593.672 528.283 589.434 529.333 587.333 C 535.919 574.162 526 565.816 526 555.333 C 526 544.664 525.333 534.902 525.333 525.333 C 525.333 514.726 521.333 506.522 521.333 497.333 C 521.333 485.458 539.393 491.97 546 488.667 C 549.082 487.126 554.514 486.538 556.667 486 C 558.922 485.436 564.221 493.779 562.667 495.333" fill="rgb(0,0,0)" vector-effect="non-scaling-stroke" stroke-width="1" stroke="rgb(0,0,0)" stroke-linejoin="miter" stroke-linecap="square" stroke-miterlimit="3"/><path d=" M 527.333 680.667 C 527.333 680.667 533.333 688 533.333 688 C 540.208 692.296 538.104 692.545 542 698 C 544.18 701.051 547.492 701.934 548 706 C 548.394 709.149 548 712.837 548 716 C 548 722.176 550.107 724.905 549.333 728 C 547.747 734.343 522.403 738.667 516.667 738.667 C 506.343 738.667 479.333 734.23 479.333 726 C 479.333 719.528 485.944 711.267 488.667 708 C 491.002 705.197 490.667 702.073 490.667 698.667 C 490.667 693.932 492 688.82 492 685.333 C 492 679.38 496.438 678.896 498.667 676.667 C 505.005 670.328 509.95 674.428 516.667 676.667 C 518.195 677.176 528 679.102 528 682 C 528 683.586 531.597 686.264 527.333 680.667 Z " fill="rgb(17,86,102)" fill-opacity="0.4" vector-effect="non-scaling-stroke" stroke-width="1" stroke="rgb(0,0,0)" stroke-linejoin="miter" stroke-linecap="square" stroke-miterlimit="3"/><path d=" M 500.667 466.667 C 500.667 466.667 522.667 464.667 522.667 464.667 C 525.475 463.864 528.421 463.333 531.333 463.333 C 545.327 463.333 555.639 462.787 568 458.667 C 585.468 452.844 578.535 461.071 583.333 470.667 C 586.622 477.245 590 496.966 590 502.667 C 590 511.023 588.223 526.446 591.333 532.667 C 596.269 542.539 591.676 556.018 596 564.667 C 600.819 574.306 598.993 586.313 602 595.333 C 604.566 603.032 606 608.503 606 614.667 C 606 616.643 599.444 622.389 601.333 623.333 C 606.232 625.783 608 626.145 608 632 C 608 636.492 600.522 639.044 602 642 C 605.924 649.848 607.333 665.962 607.333 673.333 C 607.333 682.374 620.009 694 628.667 694 C 631.28 694 642.658 703.327 645.333 705.333 C 647.642 707.065 651.903 706.667 654.667 706.667 C 665.104 706.667 680.621 707.977 688.667 712 C 703.586 719.46 676.286 726.667 671.333 726.667 C 657.317 726.667 644.508 727.058 633.333 723.333 C 623.558 720.075 607.798 704.059 614.667 724.667 C 618.025 734.74 592.576 732.667 586 732.667 C 575.927 732.667 580.667 710.974 580.667 704.667 C 580.667 692.327 588.899 681.364 585.333 670.667 C 581.241 658.389 582 644.927 582 634 C 582 629.579 581.333 627.058 581.333 624 C 581.333 618.618 584.634 619.235 580.667 607.333 C 576.696 595.42 580 578.447 580 568 C 580 556.569 577.333 546.487 577.333 536.667 C 577.333 525.616 570 515.781 570 505.333 C 570 501.84 567.234 497.727 566 496 C 560.636 488.491 555.534 476.136 553.333 467.333" fill="rgb(0,0,0)" vector-effect="non-scaling-stroke" stroke-width="1" stroke="rgb(0,0,0)" stroke-linejoin="miter" stroke-linecap="square" stroke-miterlimit="3"/><path d=" M 507.333 465 C 507.333 465 499.333 474 499.333 474 C 502.165 479.662 522.239 478.786 527.333 481.333 C 533.374 484.353 536.538 485.204 539.333 488 C 547.664 496.331 552.902 494.667 564 494.667 C 573.841 494.667 575.099 486.36 574 478.667 C 572.898 470.955 566.893 472.151 562.667 469.333 C 556.818 465.434 551.579 464.147 548 462" fill="rgb(0,0,0)" vector-effect="non-scaling-stroke" stroke-width="1" stroke="rgb(0,0,0)" stroke-linejoin="miter" stroke-linecap="square" stroke-miterlimit="3"/><path d=" M 506.062 468.375 C 505.05 468.189 501.071 465.723 500.25 468.187 C 497.578 476.202 511.938 462.682 504.75 466.875 C 501.539 468.748 507.965 466.551 504.937 467.812 C 504.472 468.006 504.812 468.812 504.75 469.312 C 505.687 469.875 503.437 467.625 503.437 467.625" fill="none" vector-effect="non-scaling-stroke" stroke-width="1" stroke="rgb(0,0,0)" stroke-linejoin="miter" stroke-linecap="square" stroke-miterlimit="3"/><path d=" M 599 444.631 C 593.809 452.789 590.469 460.608 588.875 471.302 C 585.576 484.583 595.841 471.155 597.125 468.283 C 597.125 468.283 600.125 461.741 600.125 461.741 C 602.534 471.437 598.25 485.444 598.25 494.451 C 598.25 506.387 605.965 494.195 606.875 489.922 C 607.672 486.177 608.375 482.799 608.375 478.851 C 608.375 462.251 607.25 460.965 607.25 476.838 C 607.25 491.884 614 496.192 614 480.864 C 614 471.288 615.5 451.99 615.5 469.289 C 615.5 474.395 612.655 483.883 617 483.883 C 620.6 483.883 621.5 477.43 621.5 473.315 C 621.5 460.519 617.833 455.31 612.125 447.651 C 610.366 445.291 609.209 443.625 607.625 443.625" fill="rgb(17,86,102)" fill-opacity="0.69" vector-effect="non-scaling-stroke" stroke-width="1" stroke="rgb(0,0,0)" stroke-linejoin="miter" stroke-linecap="square" stroke-miterlimit="3"/><path d=" M 522.375 174.75 C 511.674 169.349 499.59 179.598 511.125 188.25 C 520.667 192.067 528.914 180.552 522.375 174.75 Z " fill="rgb(0,0,0)" vector-effect="non-scaling-stroke" stroke-width="1" stroke="rgb(0,0,0)" stroke-linejoin="miter" stroke-linecap="square" stroke-miterlimit="3"/><path d=" M 579.656 174.375 C 561.963 169.556 565.901 190.543 582.75 187.734 C 588.787 181.697 584.571 173.953 579.656 174.375 Z " fill="rgb(0,0,0)" vector-effect="non-scaling-stroke" stroke-width="1" stroke="rgb(0,0,0)" stroke-linejoin="miter" stroke-linecap="square" stroke-miterlimit="3"/><path d=" M 541.5 200 C 539.129 204.674 522.396 211.358 535.75 215" fill="none" vector-effect="non-scaling-stroke" stroke-width="1" stroke="rgb(0,0,0)" stroke-linejoin="miter" stroke-linecap="square" stroke-miterlimit="3"/><path d=" M 476.864 339.32 C 476.864 339.32 475.847 361.334 475.847 361.334 C 475.847 364.494 475.593 367.532 475.593 370.709 C 475.593 374.034 475.406 376.222 474.831 379.334 C 474.831 396.179 471.274 411.221 471.274 426.584 C 471.274 436.306 468.858 457.476 475.339 455.084 C 482.376 452.487 485.143 456.854 485.756 448.709 C 485.963 445.952 485.502 443.883 485.502 441.209 C 485.502 429.417 486.772 419.331 486.772 408.584 C 486.772 393.431 491.853 378.946 491.853 365.084 C 491.853 358.815 489.339 353.782 488.551 349.709" fill="rgb(242,229,229)" vector-effect="non-scaling-stroke" stroke-width="1" stroke="rgb(0,0,0)" stroke-linejoin="miter" stroke-linecap="square" stroke-miterlimit="3"/><text transform="matrix(1,0,0,1,514.024,325.067)" style="font-family:'Offside';font-weight:400;font-size:12px;font-style:normal;fill:#ffffff;stroke:none;">Canada</text><path d=" M 514 224.373 C 512.25 224.919 515.804 221.01 517.333 220 C 524.294 215.406 533.652 217.302 541.333 218 C 550.872 218.867 540.863 217.081 548 218.667 C 551.055 219.346 553.647 218.956 556.667 219.333 C 563.478 220.185 566.159 225.194 571.333 229.333 C 585.359 243.359 557.162 256.543 548.667 258.667 C 534.787 262.137 514.667 256.287 514.667 242 C 514.667 233.556 514.667 227.111 514 224.373 Z " fill="rgb(255,255,255)" vector-effect="non-scaling-stroke" stroke-width="1" stroke="rgb(0,0,0)" stroke-linejoin="miter" stroke-linecap="square" stroke-miterlimit="3"/><path d=" M 572.131 281.459 C 581.068 291.588 593.519 299.439 600.925 312.033 C 611.453 329.439 615.235 343.797 620.391 360.845 C 627.353 383.866 615.775 377.493 608.225 384.983 C 600.062 393.08 594.842 378.076 594.842 394.101 C 594.842 398.354 596.869 401.779 596.869 406.438 C 596.869 424.009 592.003 439.326 592.003 454.714 C 592.003 470.131 590.786 483.191 590.786 496.016 C 590.786 513.113 592.814 528.225 592.814 542.146 C 592.814 549.138 594.942 554.071 595.653 558.774 C 597.703 572.333 595.164 567.393 586.731 571.111 C 576.855 575.465 560.212 580.229 551.448 580.229 C 535.087 580.229 521.283 582.911 507.649 582.911 C 494.832 582.911 497.51 584.803 497.51 571.111 C 497.51 566.462 497.51 561.813 497.51 557.165 C 497.51 531.159 497.321 507.424 499.943 483.142 C 502.169 462.533 502.876 442.995 500.349 426.285 C 496.849 403.137 493.533 404.613 481.694 396.783 C 472.939 390.994 463.085 387.48 467.094 371.573 C 470.744 357.092 466.301 344.705 471.149 331.88 C 476.398 317.996 487.3 304.171 495.077 295.942 C 507.145 283.173 514.58 279.401 525.898 273.413 L 527.926 272.34 L 529.954 271.804 L 572.131 281.459 Z " fill="rgb(17,86,102)" vector-effect="non-scaling-stroke" stroke-width="1" stroke="rgb(0,0,0)" stroke-linejoin="miter" stroke-linecap="square" stroke-miterlimit="3"/><path d=" M 567.833 224.373 C 569.017 214.391 579.646 208.04 587.333 202 C 599.333 192 606.667 186.667 606.667 186.667 C 606.667 186.667 604 195.333 604 195.333 C 595.761 207.692 584.399 219.068 572 227.333 L 567.833 224.373 Z " fill="rgb(255,255,255)" vector-effect="non-scaling-stroke" stroke-width="1" stroke="rgb(0,0,0)" stroke-linejoin="miter" stroke-linecap="square" stroke-miterlimit="3"/><path d=" M 518.027 227.333 C 520.794 224.622 516.571 221.27 514.667 220 C 506.073 214.271 496.025 208.688 488 202 C 485.68 200.067 483.362 198.681 480.667 197.333 C 480.667 203.402 484.916 204.582 486.667 207.333 C 496.151 222.238 503.714 230.667 518.027 227.333 Z " fill="rgb(255,255,255)" vector-effect="non-scaling-stroke" stroke-width="1" stroke="rgb(0,0,0)" stroke-linejoin="miter" stroke-linecap="square" stroke-miterlimit="3"/><path d=" M 539.69 158.045 C 539.69 158.045 526.485 149.863 526.485 149.863 C 522.82 149.863 515.859 158.216 512.533 161.005 C 500.129 161.005 492.265 163.79 482.136 163.79 C 464.565 163.79 469.488 145.85 465.194 133.848 C 464.696 132.455 467.685 121.313 467.685 121.313 C 469.05 113.687 476.479 113.983 477.153 107.387 C 477.508 103.912 476.966 101.644 478.15 98.334 C 481.276 89.598 483.342 95.315 485.624 92.763 C 489.768 88.131 492.415 82.17 497.584 78.837 C 502.767 75.493 509.829 75.155 514.526 71.873 C 524.809 64.688 535.658 61.958 544.923 62.821 C 550.051 63.298 555.253 62.967 560.37 63.517 C 564.865 64 567.839 68.668 571.831 69.784 C 594.126 76.015 610.038 105.73 622.16 125.491 C 633.508 143.993 642.615 169.338 629.136 181.895 C 623.451 187.191 621.703 200 615.184 200 C 614.336 200 602.763 195.228 602.726 195.126 C 599.928 187.304 587.926 171.554 582.794 167.968 C 569.661 158.792 557.653 148.471 543.428 148.471 C 536.664 148.471 538.678 153.019 539.69 158.045 Z " fill="rgb(17,86,102)" fill-opacity="0.85" vector-effect="non-scaling-stroke" stroke-width="1" stroke="rgb(0,0,0)" stroke-linejoin="miter" stroke-linecap="square" stroke-miterlimit="3"/><text transform="matrix(1,0,0,1,510.695,350.276)" style="font-family:'Offside';font-weight:400;font-size:11px;font-style:normal;fill:#ffffff;stroke:none;">Southmedic</text><path d=" M 580 699 C 573.277 707.221 577.862 723.61 576 727.333 C 574.493 731.855 579.892 737.054 583.333 735.333 C 592.103 730.949 586.133 740 592 740 C 595.568 740 594.582 737.54 596.667 740.667 C 600.57 746.521 626.4 743.333 632.667 743.333 C 638.465 743.333 641.246 745.182 645.333 746 C 651.283 747.19 661.715 743.476 667.333 740.667 C 670.048 739.309 672.789 744.939 676 743.333 C 676.568 743.05 680.57 739.333 682.667 739.333 C 690.23 739.333 690.327 730 696.667 730 C 700.838 730 705.068 732.924 706 727.333 C 706.531 724.148 711.697 722.728 708 715.333 C 705.214 709.762 687.224 705.24 682.667 701.333 C 679.166 698.333 680.783 698.899 676 699.333 C 668.902 699.979 664.263 702 658 702 C 639.09 702 624.181 698.621 610.667 702 C 600.761 704.476 592.585 703.52 585.333 705.333 C 584.161 705.626 576.667 705.666 580 699 Z " fill="rgb(17,86,102)" fill-opacity="0.55" vector-effect="non-scaling-stroke" stroke-width="1" stroke="rgb(0,0,0)" stroke-linejoin="miter" stroke-linecap="square" stroke-miterlimit="3"/></g></svg>